<?xml version="1.0" encoding="UTF-8"?>
<!DOCTYPE svg PUBLIC "-//W3C//DTD SVG 1.1//EN" "http://www.w3.org/Graphics/SVG/1.1/DTD/svg11.dtd">
<svg xmlns="http://www.w3.org/2000/svg" version="1.1" width="256px" height="256px" style="shape-rendering:geometricPrecision; text-rendering:geometricPrecision; image-rendering:optimizeQuality; fill-rule:evenodd; clip-rule:evenodd" xmlns:xlink="http://www.w3.org/1999/xlink">
<g><path style="opacity:1" fill="#fefefe" d="M -0.5,-0.5 C 84.8333,-0.5 170.167,-0.5 255.5,-0.5C 255.5,84.8333 255.5,170.167 255.5,255.5C 170.167,255.5 84.8333,255.5 -0.5,255.5C -0.5,170.167 -0.5,84.8333 -0.5,-0.5 Z"/></g>
<g><path style="opacity:1" fill="#4a0d44" d="M 172.5,37.5 C 166.017,33.5167 160.683,28.35 156.5,22C 150.451,20.1419 144.784,17.4752 139.5,14C 129.5,13.3333 119.5,13.3333 109.5,14C 107.061,14.5334 106.395,15.7 107.5,17.5C 105.784,17.3713 104.117,17.038 102.5,16.5C 104.649,14.2542 107.316,12.7542 110.5,12C 134.475,7.43639 154.309,14.2697 170,32.5C 171.094,34.0779 171.928,35.7446 172.5,37.5 Z"/></g>
<g><path style="opacity:1" fill="#32364f" d="M 95.5,16.5 C 90.6909,16.8692 86.0243,17.8692 81.5,19.5C 77.6888,18.3547 73.6888,18.1881 69.5,19C 64.7241,20.4799 60.0575,22.1466 55.5,24C 52.9861,24.8809 50.9861,26.3809 49.5,28.5C 47.5786,29.3627 45.5786,30.0293 43.5,30.5C 49.048,23.1463 56.3813,18.313 65.5,16C 74.8009,14.6508 84.1342,14.3174 93.5,15C 94.4158,15.2784 95.0825,15.7784 95.5,16.5 Z"/></g>
<g><path style="opacity:1" fill="#06301a" d="M 95.5,16.5 C 97.8333,16.5 100.167,16.5 102.5,16.5C 104.117,17.038 105.784,17.3713 107.5,17.5C 107.833,17.5 108.167,17.5 108.5,17.5C 112.615,18.5099 116.615,19.5099 120.5,20.5C 109.845,19.5947 99.1788,19.4281 88.5,20C 83.2641,20.965 78.2641,22.465 73.5,24.5C 73.8333,23.5 74.5,22.8333 75.5,22.5C 77.5,21.5 79.5,20.5 81.5,19.5C 86.0243,17.8692 90.6909,16.8692 95.5,16.5 Z"/></g>
<g><path style="opacity:1" fill="#05562a" d="M 120.5,20.5 C 124.249,20.7506 127.915,21.4172 131.5,22.5C 143.494,28.4938 152.494,37.4938 158.5,49.5C 158.813,53.0419 158.479,56.3752 157.5,59.5C 157.726,56.7508 157.393,54.0841 156.5,51.5C 152.113,47.4412 148.447,42.7746 145.5,37.5C 143.382,36.0541 141.049,35.3874 138.5,35.5C 138.238,33.4362 137.071,32.1029 135,31.5C 134.517,30.552 134.351,29.552 134.5,28.5C 130.788,26.6791 126.788,25.1791 122.5,24C 109.738,21.6461 97.0717,21.1461 84.5,22.5C 79.5906,23.5593 75.9239,26.3927 73.5,31C 72.0997,32.4381 70.433,33.2714 68.5,33.5C 68.1667,36.1667 67.8333,38.8333 67.5,41.5C 67.5,42.1667 67.1667,42.5 66.5,42.5C 66.5,41.1667 66.5,39.8333 66.5,38.5C 66.7105,35.248 66.0438,32.248 64.5,29.5C 65.1499,29.8039 65.8165,30.1373 66.5,30.5C 68.2593,27.7341 70.5927,25.7341 73.5,24.5C 78.2641,22.465 83.2641,20.965 88.5,20C 99.1788,19.4281 109.845,19.5947 120.5,20.5 Z"/></g>
<g><path style="opacity:1" fill="#057a3b" d="M 84.5,22.5 C 97.0717,21.1461 109.738,21.6461 122.5,24C 126.788,25.1791 130.788,26.6791 134.5,28.5C 134.351,29.552 134.517,30.552 135,31.5C 137.071,32.1029 138.238,33.4362 138.5,35.5C 129.995,30.5827 120.995,26.7494 111.5,24C 102.546,22.7356 93.5462,22.2356 84.5,22.5 Z"/></g>
<g><path style="opacity:1" fill="#476195" d="M 81.5,19.5 C 79.5,20.5 77.5,21.5 75.5,22.5C 69.8057,21.6365 64.139,22.4698 58.5,25C 57.0577,25.3768 56.0577,26.2101 55.5,27.5C 53.5,27.8333 51.5,28.1667 49.5,28.5C 50.9861,26.3809 52.9861,24.8809 55.5,24C 60.0575,22.1466 64.7241,20.4799 69.5,19C 73.6888,18.1881 77.6888,18.3547 81.5,19.5 Z"/></g>
<g><path style="opacity:1" fill="#6083c9" d="M 75.5,22.5 C 74.5,22.8333 73.8333,23.5 73.5,24.5C 70.5927,25.7341 68.2593,27.7341 66.5,30.5C 65.8165,30.1373 65.1499,29.8039 64.5,29.5C 64.1667,29.5 63.8333,29.5 63.5,29.5C 61.22,27.7773 58.5533,27.1107 55.5,27.5C 56.0577,26.2101 57.0577,25.3768 58.5,25C 64.139,22.4698 69.8057,21.6365 75.5,22.5 Z"/></g>
<g><path style="opacity:1" fill="#ad099f" d="M 144.5,20.5 C 150.09,26.3186 155.756,32.1519 161.5,38C 163.081,38.7065 164.581,39.5399 166,40.5C 170.757,48.1044 172.924,56.4377 172.5,65.5C 170.77,64.9744 169.436,63.9744 168.5,62.5C 169.638,59.6965 169.805,56.6965 169,53.5C 165.933,49.5807 163.599,45.2473 162,40.5C 154.842,34.6747 148.009,28.5081 141.5,22C 139.153,21.5639 136.819,21.0639 134.5,20.5C 132.962,20.4534 131.962,21.1201 131.5,22.5C 127.915,21.4172 124.249,20.7506 120.5,20.5C 116.615,19.5099 112.615,18.5099 108.5,17.5C 111.768,16.1778 115.435,15.5112 119.5,15.5C 128.397,15.0125 136.73,16.6792 144.5,20.5 Z"/></g>
<g><path style="opacity:1" fill="#223922" d="M 55.5,27.5 C 58.5533,27.1107 61.22,27.7773 63.5,29.5C 58.8215,29.3342 54.1548,29.5008 49.5,30C 42.386,32.3919 35.7193,35.5586 29.5,39.5C 33.6065,35.7455 38.2732,32.7455 43.5,30.5C 45.5786,30.0293 47.5786,29.3627 49.5,28.5C 51.5,28.1667 53.5,27.8333 55.5,27.5 Z"/></g>
<g><path style="opacity:1" fill="#2e532a" d="M 63.5,29.5 C 63.8333,29.5 64.1667,29.5 64.5,29.5C 66.0438,32.248 66.7105,35.248 66.5,38.5C 65.8354,36.6309 65.1687,34.6309 64.5,32.5C 63.3887,31.3887 62.0554,30.722 60.5,30.5C 56.0066,32.0776 51.34,33.2443 46.5,34C 42.9048,36.5694 38.9048,38.2361 34.5,39C 28.6952,45.4743 22.8619,51.9743 17,58.5C 14.9889,62.5672 13.9889,66.9005 14,71.5C 11.3838,75.6712 10.8838,80.0045 12.5,84.5C 12.5,86.1667 12.5,87.8333 12.5,89.5C 9.18435,70.7158 14.1844,54.2158 27.5,40C 28.0944,39.5357 28.7611,39.369 29.5,39.5C 35.7193,35.5586 42.386,32.3919 49.5,30C 54.1548,29.5008 58.8215,29.3342 63.5,29.5 Z"/></g>
<g><path style="opacity:1" fill="#07994a" d="M 84.5,22.5 C 93.5462,22.2356 102.546,22.7356 111.5,24C 120.995,26.7494 129.995,30.5827 138.5,35.5C 140.765,41.0008 144.265,45.6674 149,49.5C 149.274,52.7145 150.607,55.3812 153,57.5C 153.749,58.635 153.583,59.635 152.5,60.5C 151.264,59.7542 149.93,59.4208 148.5,59.5C 147.278,65.3819 143.611,68.3819 137.5,68.5C 137.5,68.1667 137.5,67.8333 137.5,67.5C 139.937,66.7828 142.27,65.7828 144.5,64.5C 145.6,60.5575 145.767,56.5575 145,52.5C 140.847,48.0032 137.014,43.1699 133.5,38C 129.854,35.6976 126.187,33.3643 122.5,31C 109.884,26.6896 96.8839,25.0229 83.5,26C 76.4122,27.1133 73.4122,30.9466 74.5,37.5C 74.8212,39.0481 75.8212,39.7148 77.5,39.5C 74.3443,40.4339 71.0109,41.1006 67.5,41.5C 67.8333,38.8333 68.1667,36.1667 68.5,33.5C 70.433,33.2714 72.0997,32.4381 73.5,31C 75.9239,26.3927 79.5906,23.5593 84.5,22.5 Z"/></g>
<g><path style="opacity:1" fill="#08bd5b" d="M 137.5,67.5 C 136.833,66.5 136.167,65.5 135.5,64.5C 137.833,64.5 140.167,64.5 142.5,64.5C 143.73,57.7958 141.397,52.9624 135.5,50C 134.257,48.8455 133.257,47.5122 132.5,46C 131.167,45.6667 129.833,45.3333 128.5,45C 126.356,42.0211 124.022,39.1878 121.5,36.5C 117.874,36.0156 114.54,34.8489 111.5,33C 108.62,32.3159 105.787,32.4826 103,33.5C 102.746,32.2885 101.913,31.1218 100.5,30C 93.1893,28.8903 85.856,28.557 78.5,29C 75.9892,31.3255 74.6559,34.1589 74.5,37.5C 73.4122,30.9466 76.4122,27.1133 83.5,26C 96.8839,25.0229 109.884,26.6896 122.5,31C 126.187,33.3643 129.854,35.6976 133.5,38C 137.014,43.1699 140.847,48.0032 145,52.5C 145.767,56.5575 145.6,60.5575 144.5,64.5C 142.27,65.7828 139.937,66.7828 137.5,67.5 Z"/></g>
<g><path style="opacity:1" fill="#57a750" d="M 65.5,43.5 C 63.2248,48.5452 62.2248,53.8786 62.5,59.5C 61.8333,59.1667 61.1667,58.8333 60.5,58.5C 60.4894,56.9826 59.8228,55.8159 58.5,55C 56.6854,54.2432 55.0188,53.4098 53.5,52.5C 55.5412,52.8541 57.3745,52.8541 59,52.5C 62.2948,43.2424 59.1282,39.4091 49.5,41C 44.4933,43.3454 39.4933,45.6787 34.5,48C 32.6372,50.364 30.9705,52.864 29.5,55.5C 29.6236,56.1067 29.9569,56.44 30.5,56.5C 26.1938,60.1396 22.1938,64.1396 18.5,68.5C 17.2124,65.403 17.7124,62.403 20,59.5C 25.1807,53.9831 30.014,48.1497 34.5,42C 41.7075,39.5299 49.0408,37.3633 56.5,35.5C 57.8333,35.6667 59.1667,35.8333 60.5,36C 61.5046,37.5067 62.838,38.6733 64.5,39.5C 65.2458,40.7362 65.5792,42.0695 65.5,43.5 Z"/></g>
<g><path style="opacity:1" fill="#d60dc5" d="M 168.5,62.5 C 165.792,60.6469 162.792,59.6469 159.5,59.5C 159.813,55.9581 159.479,52.6248 158.5,49.5C 152.494,37.4938 143.494,28.4938 131.5,22.5C 131.962,21.1201 132.962,20.4534 134.5,20.5C 136.819,21.0639 139.153,21.5639 141.5,22C 148.009,28.5081 154.842,34.6747 162,40.5C 163.599,45.2473 165.933,49.5807 169,53.5C 169.805,56.6965 169.638,59.6965 168.5,62.5 Z"/></g>
<g><path style="opacity:1" fill="#78e56e" d="M 53.5,52.5 C 45.4272,51.807 37.7605,53.1404 30.5,56.5C 29.9569,56.44 29.6236,56.1067 29.5,55.5C 30.9705,52.864 32.6372,50.364 34.5,48C 39.4933,45.6787 44.4933,43.3454 49.5,41C 59.1282,39.4091 62.2948,43.2424 59,52.5C 57.3745,52.8541 55.5412,52.8541 53.5,52.5 Z"/></g>
<g><path style="opacity:1" fill="#4d0d47" d="M 172.5,37.5 C 177.336,43.2079 179.336,49.8746 178.5,57.5C 178.5,58.1667 178.5,58.8333 178.5,59.5C 178.737,60.791 178.404,61.791 177.5,62.5C 178.58,56.0533 177.08,50.3866 173,45.5C 172.503,42.854 172.336,40.1873 172.5,37.5 Z"/></g>
<g><path style="opacity:1" fill="#930787" d="M 144.5,20.5 C 149.255,21.2758 153.588,23.1091 157.5,26C 160.08,30.3338 163.247,34.1671 167,37.5C 168.418,43.2293 171.085,48.2293 175,52.5C 175.499,57.1548 175.666,61.8215 175.5,66.5C 174.5,66.5 173.5,66.5 172.5,66.5C 172.5,66.1667 172.5,65.8333 172.5,65.5C 172.924,56.4377 170.757,48.1044 166,40.5C 164.581,39.5399 163.081,38.7065 161.5,38C 155.756,32.1519 150.09,26.3186 144.5,20.5 Z"/></g>
<g><path style="opacity:1" fill="#07833f" d="M 138.5,35.5 C 141.049,35.3874 143.382,36.0541 145.5,37.5C 148.447,42.7746 152.113,47.4412 156.5,51.5C 157.393,54.0841 157.726,56.7508 157.5,59.5C 157.385,61.9468 156.385,63.9468 154.5,65.5C 151.296,66.3833 148.629,68.0499 146.5,70.5C 143.944,71.5434 141.777,73.2101 140,75.5C 139.621,72.9699 138.787,70.6365 137.5,68.5C 143.611,68.3819 147.278,65.3819 148.5,59.5C 149.93,59.4208 151.264,59.7542 152.5,60.5C 153.583,59.635 153.749,58.635 153,57.5C 150.607,55.3812 149.274,52.7145 149,49.5C 144.265,45.6674 140.765,41.0008 138.5,35.5 Z"/></g>
<g><path style="opacity:1" fill="#873c72" d="M 135.5,64.5 C 136.167,65.5 136.833,66.5 137.5,67.5C 137.5,67.8333 137.5,68.1667 137.5,68.5C 138.787,70.6365 139.621,72.9699 140,75.5C 141.777,73.2101 143.944,71.5434 146.5,70.5C 144.42,72.5732 142.754,74.9066 141.5,77.5C 140.833,77.8333 140.167,78.1667 139.5,78.5C 138.833,78.8333 138.167,79.1667 137.5,79.5C 123.908,91.3015 109.241,101.635 93.5,110.5C 93.1373,111.183 92.8039,111.85 92.5,112.5C 92.5,113.167 92.1667,113.5 91.5,113.5C 89.1667,114.167 86.8333,114.833 84.5,115.5C 81.5794,115.717 78.9128,115.051 76.5,113.5C 74.9019,111.302 73.5686,108.969 72.5,106.5C 69.9846,98.0908 67.6512,89.7575 65.5,81.5C 65.5,81.1667 65.5,80.8333 65.5,80.5C 64.0211,68.7877 64.1878,57.121 66,45.5C 70.9048,43.1995 76.0715,41.6995 81.5,41C 82.8584,40.0656 84.1917,39.2323 85.5,38.5C 87.5713,36.8996 89.9047,36.3996 92.5,37C 109.774,41.6331 124.107,50.7998 135.5,64.5 Z"/></g>
<g><path style="opacity:1" fill="#c656a5" d="M 100.5,45.5 C 105.02,46.7186 109.687,47.8852 114.5,49C 114.648,52.3433 116.315,54.3433 119.5,55C 122.527,58.2721 125.694,61.4387 129,64.5C 131.317,67.4681 132.817,70.8014 133.5,74.5C 132.345,77.0115 131.678,79.6781 131.5,82.5C 130.127,82.3433 128.793,82.51 127.5,83C 125.022,87.4804 121.355,90.4804 116.5,92C 111.01,98.9129 104.01,103.58 95.5,106C 90.9084,110.943 85.2417,112.61 78.5,111C 74.8725,105.759 72.5392,99.9257 71.5,93.5C 71.4072,86.123 70.4072,78.9564 68.5,72C 68.9168,65.4875 71.0835,59.6542 75,54.5C 78.516,51.98 81.6827,49.1467 84.5,46C 89.8229,45.5006 95.1563,45.334 100.5,45.5 Z"/></g>
<g><path style="opacity:1" fill="#0ce670" d="M 135.5,64.5 C 124.107,50.7998 109.774,41.6331 92.5,37C 89.9047,36.3996 87.5713,36.8996 85.5,38.5C 82.8333,38.8333 80.1667,39.1667 77.5,39.5C 75.8212,39.7148 74.8212,39.0481 74.5,37.5C 74.6559,34.1589 75.9892,31.3255 78.5,29C 85.856,28.557 93.1893,28.8903 100.5,30C 101.913,31.1218 102.746,32.2885 103,33.5C 105.787,32.4826 108.62,32.3159 111.5,33C 114.54,34.8489 117.874,36.0156 121.5,36.5C 124.022,39.1878 126.356,42.0211 128.5,45C 129.833,45.3333 131.167,45.6667 132.5,46C 133.257,47.5122 134.257,48.8455 135.5,50C 141.397,52.9624 143.73,57.7958 142.5,64.5C 140.167,64.5 137.833,64.5 135.5,64.5 Z"/></g>
<g><path style="opacity:1" fill="#710568" d="M 172.5,37.5 C 172.336,40.1873 172.503,42.854 173,45.5C 177.08,50.3866 178.58,56.0533 177.5,62.5C 177.371,64.2161 177.038,65.8828 176.5,67.5C 175.833,67.5 175.5,67.8333 175.5,68.5C 173.973,68.573 172.973,67.9063 172.5,66.5C 173.5,66.5 174.5,66.5 175.5,66.5C 175.666,61.8215 175.499,57.1548 175,52.5C 171.085,48.2293 168.418,43.2293 167,37.5C 163.247,34.1671 160.08,30.3338 157.5,26C 153.588,23.1091 149.255,21.2758 144.5,20.5C 136.73,16.6792 128.397,15.0125 119.5,15.5C 115.435,15.5112 111.768,16.1778 108.5,17.5C 108.167,17.5 107.833,17.5 107.5,17.5C 106.395,15.7 107.061,14.5334 109.5,14C 119.5,13.3333 129.5,13.3333 139.5,14C 144.784,17.4752 150.451,20.1419 156.5,22C 160.683,28.35 166.017,33.5167 172.5,37.5 Z"/></g>
<g><path style="opacity:1" fill="#e463bf" d="M 89.5,51.5 C 94.8993,51.309 100.233,51.809 105.5,53C 111.456,56.7648 117.789,59.7648 124.5,62C 125.394,65.4145 126.061,68.9145 126.5,72.5C 125.142,75.3815 123.975,78.3815 123,81.5C 117.558,85.9386 112.391,90.772 107.5,96C 100.964,101.002 93.6309,104.502 85.5,106.5C 75.4656,105.611 71.9656,100.278 75,90.5C 75.923,88.9656 76.423,87.299 76.5,85.5C 75.0582,81.1101 74.0582,76.6101 73.5,72C 74.886,62.0509 80.2193,55.2176 89.5,51.5 Z"/></g>
<g><path style="opacity:1" fill="#381641" d="M 158.5,49.5 C 159.479,52.6248 159.813,55.9581 159.5,59.5C 162.792,59.6469 165.792,60.6469 168.5,62.5C 169.436,63.9744 170.77,64.9744 172.5,65.5C 172.5,65.8333 172.5,66.1667 172.5,66.5C 172.973,67.9063 173.973,68.573 175.5,68.5C 176.553,71.6071 177.886,74.6071 179.5,77.5C 175.013,74.1717 171.346,70.005 168.5,65C 166.22,64.2972 164.22,63.1306 162.5,61.5C 160.502,64.0139 157.835,65.3472 154.5,65.5C 156.385,63.9468 157.385,61.9468 157.5,59.5C 158.479,56.3752 158.813,53.0419 158.5,49.5 Z"/></g>
<g><path style="opacity:1" fill="#3442a2" d="M 60.5,58.5 C 61.1667,58.8333 61.8333,59.1667 62.5,59.5C 62.5,60.8333 62.5,62.1667 62.5,63.5C 61.609,62.8902 60.609,62.5569 59.5,62.5C 59.1667,62.5 58.8333,62.5 58.5,62.5C 57.8856,58.7664 55.7189,56.433 52,55.5C 37.9456,58.5561 29.6122,67.2228 27,81.5C 24.882,92.5427 28.0486,101.709 36.5,109C 42.0719,112.572 48.0719,114.405 54.5,114.5C 47.621,114.778 40.7877,114.445 34,113.5C 28.9029,109.059 24.9029,103.725 22,97.5C 21.3333,91.1667 21.3333,84.8333 22,78.5C 23.876,72.9349 26.0427,67.6016 28.5,62.5C 30.6298,60.8729 32.6298,59.0396 34.5,57C 40.258,56.6915 45.9247,55.8582 51.5,54.5C 52.8333,54.6667 54.1667,54.8333 55.5,55C 57.0646,56.4119 58.7313,57.5786 60.5,58.5 Z"/></g>
<g><path style="opacity:1" fill="#ac4b90" d="M 100.5,45.5 C 95.1563,45.334 89.8229,45.5006 84.5,46C 81.6827,49.1467 78.516,51.98 75,54.5C 71.0835,59.6542 68.9168,65.4875 68.5,72C 70.4072,78.9564 71.4072,86.123 71.5,93.5C 65.7057,80.2193 65.039,66.5526 69.5,52.5C 74.6955,46.1934 81.3622,42.1934 89.5,40.5C 93.3125,41.9866 96.9792,43.6533 100.5,45.5 Z"/></g>
<g><path style="opacity:1" fill="#542749" d="M 85.5,38.5 C 84.1917,39.2323 82.8584,40.0656 81.5,41C 76.0715,41.6995 70.9048,43.1995 66,45.5C 64.1878,57.121 64.0211,68.7877 65.5,80.5C 64.7784,80.0825 64.2784,79.4158 64,78.5C 63.2522,73.5186 62.7522,68.5186 62.5,63.5C 62.5,62.1667 62.5,60.8333 62.5,59.5C 62.2248,53.8786 63.2248,48.5452 65.5,43.5C 66.1667,43.5 66.5,43.1667 66.5,42.5C 67.1667,42.5 67.5,42.1667 67.5,41.5C 71.0109,41.1006 74.3443,40.4339 77.5,39.5C 80.1667,39.1667 82.8333,38.8333 85.5,38.5 Z"/></g>
<g><path style="opacity:1" fill="#3c4cbc" d="M 58.5,62.5 C 53.2519,59.5114 48.4186,60.1781 44,64.5C 42.8099,69.2132 40.8099,73.5465 38,77.5C 36.0785,84.8729 36.0785,92.2062 38,99.5C 43.594,104.191 49.7607,107.858 56.5,110.5C 59.5,110 62.5,109.5 65.5,109C 66.1078,107.769 66.4411,106.436 66.5,105C 65.5906,100.604 64.0906,96.4372 62,92.5C 61.9529,82.3829 61.1195,72.3829 59.5,62.5C 60.609,62.5569 61.609,62.8902 62.5,63.5C 62.7522,68.5186 63.2522,73.5186 64,78.5C 64.2784,79.4158 64.7784,80.0825 65.5,80.5C 65.5,80.8333 65.5,81.1667 65.5,81.5C 66.3708,87.8539 67.3708,94.1873 68.5,100.5C 68.3841,103.86 68.0508,107.193 67.5,110.5C 64.8722,111.801 62.5389,113.467 60.5,115.5C 59.8333,115.833 59.1667,116.167 58.5,116.5C 57.8333,116.5 57.1667,116.5 56.5,116.5C 56.5,115.167 55.8333,114.5 54.5,114.5C 48.0719,114.405 42.0719,112.572 36.5,109C 28.0486,101.709 24.882,92.5427 27,81.5C 29.6122,67.2228 37.9456,58.5561 52,55.5C 55.7189,56.433 57.8856,58.7664 58.5,62.5 Z"/></g>
<g><path style="opacity:1" fill="#3f793a" d="M 66.5,38.5 C 66.5,39.8333 66.5,41.1667 66.5,42.5C 66.5,43.1667 66.1667,43.5 65.5,43.5C 65.5792,42.0695 65.2458,40.7362 64.5,39.5C 62.838,38.6733 61.5046,37.5067 60.5,36C 59.1667,35.8333 57.8333,35.6667 56.5,35.5C 49.0408,37.3633 41.7075,39.5299 34.5,42C 30.014,48.1497 25.1807,53.9831 20,59.5C 17.7124,62.403 17.2124,65.403 18.5,68.5C 17.5592,70.0495 16.8925,71.7162 16.5,73.5C 14.4155,76.8013 13.0822,80.468 12.5,84.5C 10.8838,80.0045 11.3838,75.6712 14,71.5C 13.9889,66.9005 14.9889,62.5672 17,58.5C 22.8619,51.9743 28.6952,45.4743 34.5,39C 38.9048,38.2361 42.9048,36.5694 46.5,34C 51.34,33.2443 56.0066,32.0776 60.5,30.5C 62.0554,30.722 63.3887,31.3887 64.5,32.5C 65.1687,34.6309 65.8354,36.6309 66.5,38.5 Z"/></g>
<g><path style="opacity:1" fill="#742e8b" d="M 176.5,112.5 C 177.51,105.238 176.01,98.5712 172,92.5C 171.076,79.0956 164.243,71.4289 151.5,69.5C 151.791,68.3509 152.624,67.6842 154,67.5C 157.481,68.1227 160.981,68.6227 164.5,69C 171.7,76.8404 176.867,86.0071 180,96.5C 181.378,102.549 180.212,107.882 176.5,112.5 Z"/></g>
<g><path style="opacity:1" fill="#562266" d="M 179.5,77.5 C 180.521,84.4367 182.188,91.1034 184.5,97.5C 184.036,100.887 183.369,104.22 182.5,107.5C 181.662,107.842 181.328,108.508 181.5,109.5C 181.5,110.167 181.5,110.833 181.5,111.5C 179.167,113.833 176.833,116.167 174.5,118.5C 173.167,119.167 171.833,119.833 170.5,120.5C 171.038,118.883 171.371,117.216 171.5,115.5C 173.001,114.248 174.668,113.248 176.5,112.5C 180.212,107.882 181.378,102.549 180,96.5C 176.867,86.0071 171.7,76.8404 164.5,69C 160.981,68.6227 157.481,68.1227 154,67.5C 152.624,67.6842 151.791,68.3509 151.5,69.5C 147.878,71.7867 144.545,74.4534 141.5,77.5C 142.754,74.9066 144.42,72.5732 146.5,70.5C 148.629,68.0499 151.296,66.3833 154.5,65.5C 157.835,65.3472 160.502,64.0139 162.5,61.5C 164.22,63.1306 166.22,64.2972 168.5,65C 171.346,70.005 175.013,74.1717 179.5,77.5 Z"/></g>
<g><path style="opacity:1" fill="#8e38a9" d="M 176.5,112.5 C 174.668,113.248 173.001,114.248 171.5,115.5C 173,100.517 168.667,87.684 158.5,77C 154.654,75.4915 150.821,75.3249 147,76.5C 144.115,80.1532 142.615,84.3199 142.5,89C 142.569,90.9855 143.235,92.4855 144.5,93.5C 146.22,94.3077 147.887,95.3077 149.5,96.5C 149.366,98.2915 149.699,99.9582 150.5,101.5C 148.589,100.925 146.922,99.925 145.5,98.5C 144.167,96.5 142.5,94.8333 140.5,93.5C 139.842,90.8445 139.175,88.1778 138.5,85.5C 138.997,83.1817 139.33,80.8484 139.5,78.5C 140.167,78.1667 140.833,77.8333 141.5,77.5C 144.545,74.4534 147.878,71.7867 151.5,69.5C 164.243,71.4289 171.076,79.0956 172,92.5C 176.01,98.5712 177.51,105.238 176.5,112.5 Z"/></g>
<g><path style="opacity:1" fill="#522161" d="M 139.5,78.5 C 139.33,80.8484 138.997,83.1817 138.5,85.5C 139.175,88.1778 139.842,90.8445 140.5,93.5C 138.539,91.6878 136.206,90.6878 133.5,90.5C 133.196,89.8501 132.863,89.1835 132.5,88.5C 134.445,85.6067 136.111,82.6067 137.5,79.5C 138.167,79.1667 138.833,78.8333 139.5,78.5 Z"/></g>
<g><path style="opacity:1" fill="#256f38" d="M 178.5,59.5 C 181.444,60.9068 183.278,63.2401 184,66.5C 186.719,68.2193 188.719,70.5526 190,73.5C 195.236,88.5256 194.57,103.192 188,117.5C 187.79,115.942 187.29,114.609 186.5,113.5C 186.5,113.167 186.5,112.833 186.5,112.5C 187.496,112.586 188.329,112.252 189,111.5C 190.405,103.208 190.738,94.8748 190,86.5C 187.573,80.5834 185.24,74.5834 183,68.5C 180.997,66.5424 178.831,66.2091 176.5,67.5C 177.038,65.8828 177.371,64.2161 177.5,62.5C 178.404,61.791 178.737,60.791 178.5,59.5 Z"/></g>
<g><path style="opacity:1" fill="#fd76d9" d="M 96.5,67.5 C 103.256,65.7225 107.756,68.0558 110,74.5C 110.656,88.1653 104.156,93.6653 90.5,91C 82.4979,81.464 84.1646,74.2973 95.5,69.5C 96.2975,69.0431 96.6309,68.3764 96.5,67.5 Z"/></g>
<g><path style="opacity:1" fill="#bc4ae0" d="M 149.5,96.5 C 147.887,95.3077 146.22,94.3077 144.5,93.5C 143.272,89.8505 143.272,86.1838 144.5,82.5C 145.5,82.5 146.5,82.5 147.5,82.5C 146.555,77.1054 148.555,75.4387 153.5,77.5C 156.131,80.8958 158.298,84.5625 160,88.5C 166.684,95.3813 169.517,103.715 168.5,113.5C 166.801,113.66 165.134,113.494 163.5,113C 158.593,107.602 153.927,102.102 149.5,96.5 Z"/></g>
<g><path style="opacity:1" fill="#214328" d="M 178.5,57.5 C 183.172,60.006 186.672,63.6727 189,68.5C 199.669,86.9065 198.836,104.573 186.5,121.5C 186.5,118.833 186.5,116.167 186.5,113.5C 187.29,114.609 187.79,115.942 188,117.5C 194.57,103.192 195.236,88.5256 190,73.5C 188.719,70.5526 186.719,68.2193 184,66.5C 183.278,63.2401 181.444,60.9068 178.5,59.5C 178.5,58.8333 178.5,58.1667 178.5,57.5 Z"/></g>
<g><path style="opacity:1" fill="#472345" d="M 65.5,81.5 C 67.6512,89.7575 69.9846,98.0908 72.5,106.5C 71.8333,106.167 71.1667,105.833 70.5,105.5C 70.8799,103.302 70.2132,101.635 68.5,100.5C 67.3708,94.1873 66.3708,87.8539 65.5,81.5 Z"/></g>
<g><path style="opacity:1" fill="#336f08" d="M 133.5,90.5 C 136.206,90.6878 138.539,91.6878 140.5,93.5C 142.5,94.8333 144.167,96.5 145.5,98.5C 144.391,98.4431 143.391,98.1098 142.5,97.5C 139.828,97.1724 138.161,95.6724 137.5,93C 136.333,92.8333 135.167,92.6667 134,92.5C 128.393,94.6133 122.893,96.9466 117.5,99.5C 113.5,101.833 109.5,104.167 105.5,106.5C 111.568,100.954 118.235,96.1205 125.5,92C 128.063,90.9207 130.729,90.4207 133.5,90.5 Z"/></g>
<g><path style="opacity:1" fill="#492340" d="M 137.5,79.5 C 136.111,82.6067 134.445,85.6067 132.5,88.5C 132.863,89.1835 133.196,89.8501 133.5,90.5C 130.729,90.4207 128.063,90.9207 125.5,92C 118.235,96.1205 111.568,100.954 105.5,106.5C 101.167,108.5 96.8333,110.5 92.5,112.5C 92.8039,111.85 93.1373,111.183 93.5,110.5C 109.241,101.635 123.908,91.3015 137.5,79.5 Z"/></g>
<g><path style="opacity:1" fill="#341a3e" d="M 179.5,77.5 C 185.792,86.7841 187.125,96.7841 183.5,107.5C 183.167,107.5 182.833,107.5 182.5,107.5C 183.369,104.22 184.036,100.887 184.5,97.5C 182.188,91.1034 180.521,84.4367 179.5,77.5 Z"/></g>
<g><path style="opacity:1" fill="#181d41" d="M 16.5,73.5 C 13.6676,88.5065 16.001,102.507 23.5,115.5C 22.1667,114.5 20.8333,113.5 19.5,112.5C 16.7687,110.929 14.9354,108.595 14,105.5C 12.7288,100.246 12.2288,94.9127 12.5,89.5C 12.5,87.8333 12.5,86.1667 12.5,84.5C 13.0822,80.468 14.4155,76.8013 16.5,73.5 Z"/></g>
<g><path style="opacity:1" fill="#20295d" d="M 53.5,52.5 C 55.0188,53.4098 56.6854,54.2432 58.5,55C 59.8228,55.8159 60.4894,56.9826 60.5,58.5C 58.7313,57.5786 57.0646,56.4119 55.5,55C 54.1667,54.8333 52.8333,54.6667 51.5,54.5C 45.9247,55.8582 40.258,56.6915 34.5,57C 32.6298,59.0396 30.6298,60.8729 28.5,62.5C 25.889,65.3727 23.0557,68.0394 20,70.5C 13.3723,87.3556 16.2057,102.189 28.5,115C 32.1365,116.813 35.9698,117.98 40,118.5C 45.3029,116.951 50.8029,116.284 56.5,116.5C 57.1667,116.5 57.8333,116.5 58.5,116.5C 58.5,116.833 58.5,117.167 58.5,117.5C 49.5948,119.036 40.5948,119.703 31.5,119.5C 29.7839,119.371 28.1172,119.038 26.5,118.5C 26.1583,117.662 25.4916,117.328 24.5,117.5C 24.1667,116.833 23.8333,116.167 23.5,115.5C 16.001,102.507 13.6676,88.5065 16.5,73.5C 16.8925,71.7162 17.5592,70.0495 18.5,68.5C 22.1938,64.1396 26.1938,60.1396 30.5,56.5C 37.7605,53.1404 45.4272,51.807 53.5,52.5 Z"/></g>
<g><path style="opacity:1" fill="#4d62ed" d="M 58.5,62.5 C 58.8333,62.5 59.1667,62.5 59.5,62.5C 61.1195,72.3829 61.9529,82.3829 62,92.5C 64.0906,96.4372 65.5906,100.604 66.5,105C 66.4411,106.436 66.1078,107.769 65.5,109C 62.5,109.5 59.5,110 56.5,110.5C 49.7607,107.858 43.594,104.191 38,99.5C 36.0785,92.2062 36.0785,84.8729 38,77.5C 40.8099,73.5465 42.8099,69.2132 44,64.5C 48.4186,60.1781 53.2519,59.5114 58.5,62.5 Z"/></g>
<g><path style="opacity:1" fill="#272d66" d="M 68.5,100.5 C 70.2132,101.635 70.8799,103.302 70.5,105.5C 70.2986,109.13 68.632,111.797 65.5,113.5C 63.9505,114.441 62.2838,115.107 60.5,115.5C 62.5389,113.467 64.8722,111.801 67.5,110.5C 68.0508,107.193 68.3841,103.86 68.5,100.5 Z"/></g>
<g><path style="opacity:1" fill="#a641c6" d="M 171.5,115.5 C 166.118,120.052 162.451,118.885 160.5,112C 159.552,111.517 158.552,111.351 157.5,111.5C 155.167,108.167 152.833,104.833 150.5,101.5C 149.699,99.9582 149.366,98.2915 149.5,96.5C 153.927,102.102 158.593,107.602 163.5,113C 165.134,113.494 166.801,113.66 168.5,113.5C 169.517,103.715 166.684,95.3813 160,88.5C 158.298,84.5625 156.131,80.8958 153.5,77.5C 148.555,75.4387 146.555,77.1054 147.5,82.5C 146.5,82.5 145.5,82.5 144.5,82.5C 143.272,86.1838 143.272,89.8505 144.5,93.5C 143.235,92.4855 142.569,90.9855 142.5,89C 142.615,84.3199 144.115,80.1532 147,76.5C 150.821,75.3249 154.654,75.4915 158.5,77C 168.667,87.684 173,100.517 171.5,115.5 Z"/></g>
<g><path style="opacity:1" fill="#369f50" d="M 186.5,112.5 C 185.248,110.999 184.248,109.332 183.5,107.5C 187.125,96.7841 185.792,86.7841 179.5,77.5C 177.886,74.6071 176.553,71.6071 175.5,68.5C 175.5,67.8333 175.833,67.5 176.5,67.5C 178.831,66.2091 180.997,66.5424 183,68.5C 185.24,74.5834 187.573,80.5834 190,86.5C 190.738,94.8748 190.405,103.208 189,111.5C 188.329,112.252 187.496,112.586 186.5,112.5 Z"/></g>
<g><path style="opacity:1" fill="#65e906" d="M 110.5,109.5 C 110.973,108.094 111.973,107.427 113.5,107.5C 117.161,106.352 120.161,104.186 122.5,101C 128.694,99.2356 133.694,100.902 137.5,106C 144.731,107.237 148.398,111.57 148.5,119C 147.58,126.02 145.58,132.687 142.5,139C 127.426,148.799 113.759,147.299 101.5,134.5C 98.2892,131.572 95.6226,128.239 93.5,124.5C 99.0105,119.257 104.677,114.257 110.5,109.5 Z"/></g>
<g><path style="opacity:1" fill="#a6aa51" d="M 70.5,105.5 C 71.1667,105.833 71.8333,106.167 72.5,106.5C 73.5686,108.969 74.9019,111.302 76.5,113.5C 72.6603,114.335 68.9937,114.335 65.5,113.5C 68.632,111.797 70.2986,109.13 70.5,105.5 Z"/></g>
<g><path style="opacity:1" fill="#79fe14" d="M 122.5,105.5 C 132.13,105.393 135.296,110.06 132,119.5C 128.825,122.343 125.991,125.51 123.5,129C 116.763,132.061 111.763,130.394 108.5,124C 109.333,121.5 110.167,119 111,116.5C 114.729,112.602 118.562,108.935 122.5,105.5 Z"/></g>
<g><path style="opacity:1" fill="#5ad205" d="M 93.5,129.5 C 91.615,127.205 91.115,124.538 92,121.5C 94.1667,119.333 96.3333,117.167 98.5,115C 101.476,114.295 104.142,113.129 106.5,111.5C 107.605,110.4 108.938,109.733 110.5,109.5C 104.677,114.257 99.0105,119.257 93.5,124.5C 95.6226,128.239 98.2892,131.572 101.5,134.5C 113.759,147.299 127.426,148.799 142.5,139C 145.58,132.687 147.58,126.02 148.5,119C 148.398,111.57 144.731,107.237 137.5,106C 133.694,100.902 128.694,99.2356 122.5,101C 120.161,104.186 117.161,106.352 113.5,107.5C 116.271,105.233 118.938,102.733 121.5,100C 126.744,97.3412 132.078,97.0079 137.5,99C 140.319,103.484 143.819,107.318 148,110.5C 149.401,117.477 150.568,124.477 151.5,131.5C 151.065,135.381 150.065,139.047 148.5,142.5C 137.352,152.166 125.019,154 111.5,148C 105.325,141.991 99.3246,135.825 93.5,129.5 Z"/></g>
<g><path style="opacity:1" fill="#bd7f3f" d="M 91.5,113.5 C 89.8036,115.525 88.137,117.525 86.5,119.5C 85.3263,118.486 84.6596,117.153 84.5,115.5C 86.8333,114.833 89.1667,114.167 91.5,113.5 Z"/></g>
<g><path style="opacity:1" fill="#306906" d="M 105.5,106.5 C 99.493,110.299 93.993,114.966 89,120.5C 88.5008,125.155 88.3342,129.821 88.5,134.5C 86.3082,130.902 85.3082,126.902 85.5,122.5C 86.404,121.791 86.7373,120.791 86.5,119.5C 88.137,117.525 89.8036,115.525 91.5,113.5C 92.1667,113.5 92.5,113.167 92.5,112.5C 96.8333,110.5 101.167,108.5 105.5,106.5 Z"/></g>
<g><path style="opacity:1" fill="#27327b" d="M 28.5,62.5 C 26.0427,67.6016 23.876,72.9349 22,78.5C 21.3333,84.8333 21.3333,91.1667 22,97.5C 24.9029,103.725 28.9029,109.059 34,113.5C 40.7877,114.445 47.621,114.778 54.5,114.5C 55.8333,114.5 56.5,115.167 56.5,116.5C 50.8029,116.284 45.3029,116.951 40,118.5C 35.9698,117.98 32.1365,116.813 28.5,115C 16.2057,102.189 13.3723,87.3556 20,70.5C 23.0557,68.0394 25.889,65.3727 28.5,62.5 Z"/></g>
<g><path style="opacity:1" fill="#513027" d="M 65.5,113.5 C 68.9937,114.335 72.6603,114.335 76.5,113.5C 78.9128,115.051 81.5794,115.717 84.5,115.5C 84.6596,117.153 85.3263,118.486 86.5,119.5C 86.7373,120.791 86.404,121.791 85.5,122.5C 83.2404,120.35 80.9071,118.183 78.5,116C 71.8452,116.294 65.1786,116.794 58.5,117.5C 58.5,117.167 58.5,116.833 58.5,116.5C 59.1667,116.167 59.8333,115.833 60.5,115.5C 62.2838,115.107 63.9505,114.441 65.5,113.5 Z"/></g>
<g><path style="opacity:1" fill="#409404" d="M 117.5,99.5 C 114.602,102.628 111.268,105.294 107.5,107.5C 106.571,108.689 106.238,110.022 106.5,111.5C 93.174,113.66 88.0074,121.327 91,134.5C 94.4044,138.394 97.5711,142.394 100.5,146.5C 97.8883,145.221 95.5549,143.555 93.5,141.5C 92.2719,140.694 91.2719,139.694 90.5,138.5C 90.0113,137.005 89.3446,135.671 88.5,134.5C 88.3342,129.821 88.5008,125.155 89,120.5C 93.993,114.966 99.493,110.299 105.5,106.5C 109.5,104.167 113.5,101.833 117.5,99.5 Z"/></g>
<g><path style="opacity:1" fill="#813399" d="M 157.5,111.5 C 158.552,111.351 159.552,111.517 160.5,112C 162.451,118.885 166.118,120.052 171.5,115.5C 171.371,117.216 171.038,118.883 170.5,120.5C 168.22,122.223 165.553,122.889 162.5,122.5C 161.027,118.749 159.36,115.083 157.5,111.5 Z"/></g>
<g><path style="opacity:1" fill="#995648" d="M 85.5,122.5 C 85.3082,126.902 86.3082,130.902 88.5,134.5C 89.3446,135.671 90.0113,137.005 90.5,138.5C 91.2719,139.694 92.2719,140.694 93.5,141.5C 95.4248,145.433 97.2581,149.433 99,153.5C 101.758,155.751 103.925,158.418 105.5,161.5C 105.055,164.365 105.722,166.865 107.5,169C 97.6789,176.136 86.6789,178.469 74.5,176C 68.6842,174.648 63.0175,172.814 57.5,170.5C 51.5629,166.826 46.8963,161.826 43.5,155.5C 42.675,154.614 41.675,154.281 40.5,154.5C 38.4636,151.629 36.6303,148.629 35,145.5C 33.1819,139.246 32.1819,132.912 32,126.5C 32.5,125.333 33.3333,124.5 34.5,124C 40.8482,123.065 47.1815,122.065 53.5,121C 55.1828,119.714 56.8494,118.547 58.5,117.5C 65.1786,116.794 71.8452,116.294 78.5,116C 80.9071,118.183 83.2404,120.35 85.5,122.5 Z"/></g>
<g><path style="opacity:1" fill="#d8487d" d="M 174.5,118.5 C 179.068,118.083 180.568,120.083 179,124.5C 176.5,127.667 174,130.833 171.5,134C 169.866,134.494 168.199,134.66 166.5,134.5C 166.5,133.833 166.167,133.5 165.5,133.5C 165.106,129.653 164.106,125.986 162.5,122.5C 165.553,122.889 168.22,122.223 170.5,120.5C 171.833,119.833 173.167,119.167 174.5,118.5 Z"/></g>
<g><path style="opacity:1" fill="#5a1f35" d="M 181.5,109.5 C 182.885,110.574 184.051,111.907 185,113.5C 185.667,117.833 185.667,122.167 185,126.5C 182.258,132.899 179.425,139.233 176.5,145.5C 174.112,148.554 171.446,151.221 168.5,153.5C 167.508,153.328 166.842,153.662 166.5,154.5C 165.167,154.833 163.833,155.167 162.5,155.5C 163.458,154.038 164.624,152.705 166,151.5C 166.191,149.292 166.691,147.292 167.5,145.5C 167.47,146.497 167.97,147.164 169,147.5C 170.605,146.899 171.938,145.899 173,144.5C 178.012,136.459 181.512,127.792 183.5,118.5C 183.558,115.922 182.891,113.589 181.5,111.5C 181.5,110.833 181.5,110.167 181.5,109.5 Z"/></g>
<g><path style="opacity:1" fill="#67d5be" d="M 26.5,118.5 C 28.1172,119.038 29.7839,119.371 31.5,119.5C 32.2625,120.268 33.2625,120.768 34.5,121C 32,122.167 30.1667,124 29,126.5C 28.2223,131.584 28.3889,136.584 29.5,141.5C 29.5,143.5 29.5,145.5 29.5,147.5C 28.2876,146.77 27.2876,145.77 26.5,144.5C 25.4722,138.188 24.1389,132.022 22.5,126C 21.9186,122.429 23.2519,119.929 26.5,118.5 Z"/></g>
<g><path style="opacity:1" fill="#a2365e" d="M 181.5,111.5 C 182.891,113.589 183.558,115.922 183.5,118.5C 181.512,127.792 178.012,136.459 173,144.5C 171.938,145.899 170.605,146.899 169,147.5C 167.97,147.164 167.47,146.497 167.5,145.5C 167.821,144.183 168.154,142.849 168.5,141.5C 167.533,139.238 166.866,136.905 166.5,134.5C 168.199,134.66 169.866,134.494 171.5,134C 174,130.833 176.5,127.667 179,124.5C 180.568,120.083 179.068,118.083 174.5,118.5C 176.833,116.167 179.167,113.833 181.5,111.5 Z"/></g>
<g><path style="opacity:1" fill="#53c005" d="M 142.5,97.5 C 142.351,98.552 142.517,99.552 143,100.5C 146.335,103.866 149.168,107.532 151.5,111.5C 152.808,116.867 154.308,122.2 156,127.5C 156.684,130.38 156.517,133.213 155.5,136C 143.167,155.445 126.834,159.778 106.5,149C 102.235,144.341 98.0684,139.507 94,134.5C 93.5065,132.866 93.3398,131.199 93.5,129.5C 99.3246,135.825 105.325,141.991 111.5,148C 125.019,154 137.352,152.166 148.5,142.5C 150.065,139.047 151.065,135.381 151.5,131.5C 150.568,124.477 149.401,117.477 148,110.5C 143.819,107.318 140.319,103.484 137.5,99C 132.078,97.0079 126.744,97.3412 121.5,100C 118.938,102.733 116.271,105.233 113.5,107.5C 111.973,107.427 110.973,108.094 110.5,109.5C 108.938,109.733 107.605,110.4 106.5,111.5C 106.238,110.022 106.571,108.689 107.5,107.5C 111.268,105.294 114.602,102.628 117.5,99.5C 122.893,96.9466 128.393,94.6133 134,92.5C 135.167,92.6667 136.333,92.8333 137.5,93C 138.161,95.6724 139.828,97.1724 142.5,97.5 Z"/></g>
<g><path style="opacity:1" fill="#361923" d="M 182.5,107.5 C 182.833,107.5 183.167,107.5 183.5,107.5C 184.248,109.332 185.248,110.999 186.5,112.5C 186.5,112.833 186.5,113.167 186.5,113.5C 186.5,116.167 186.5,118.833 186.5,121.5C 186.439,130.944 183.106,138.944 176.5,145.5C 179.425,139.233 182.258,132.899 185,126.5C 185.667,122.167 185.667,117.833 185,113.5C 184.051,111.907 182.885,110.574 181.5,109.5C 181.328,108.508 181.662,107.842 182.5,107.5 Z"/></g>
<g><path style="opacity:1" fill="#4c9f8e" d="M 24.5,117.5 C 25.4916,117.328 26.1583,117.662 26.5,118.5C 23.2519,119.929 21.9186,122.429 22.5,126C 24.1389,132.022 25.4722,138.188 26.5,144.5C 27.2876,145.77 28.2876,146.77 29.5,147.5C 31.9934,153.157 34.9934,158.49 38.5,163.5C 35.6837,163.124 33.1837,161.458 31,158.5C 28.6142,154.396 26.7809,150.062 25.5,145.5C 24.1779,145.67 23.0113,145.337 22,144.5C 20.4772,136.898 20.1439,129.232 21,121.5C 22.3756,120.295 23.5423,118.962 24.5,117.5 Z"/></g>
<g><path style="opacity:1" fill="#e37e6b" d="M 69.5,119.5 C 71.6208,119.325 73.6208,119.659 75.5,120.5C 76.209,121.404 77.209,121.737 78.5,121.5C 80.9814,130.475 83.4814,139.475 86,148.5C 87.5142,153.701 86.0142,157.534 81.5,160C 77.5,160.667 73.5,160.667 69.5,160C 63.3567,154.188 57.5233,148.022 52,141.5C 47.8205,130.728 51.6538,124.894 63.5,124C 65.5444,123.502 66.8777,122.335 67.5,120.5C 68.4916,120.672 69.1583,120.338 69.5,119.5 Z"/></g>
<g><path style="opacity:1" fill="#2f554d" d="M 19.5,112.5 C 20.8333,113.5 22.1667,114.5 23.5,115.5C 23.8333,116.167 24.1667,116.833 24.5,117.5C 23.5423,118.962 22.3756,120.295 21,121.5C 20.1439,129.232 20.4772,136.898 22,144.5C 23.0113,145.337 24.1779,145.67 25.5,145.5C 26.7809,150.062 28.6142,154.396 31,158.5C 33.1837,161.458 35.6837,163.124 38.5,163.5C 41.4715,166.808 44.4715,170.141 47.5,173.5C 35.123,167.62 26.2897,158.287 21,145.5C 15.7163,134.647 15.2163,123.647 19.5,112.5 Z"/></g>
<g><path style="opacity:1" fill="#4cb104" d="M 106.5,111.5 C 104.142,113.129 101.476,114.295 98.5,115C 96.3333,117.167 94.1667,119.333 92,121.5C 91.115,124.538 91.615,127.205 93.5,129.5C 93.3398,131.199 93.5065,132.866 94,134.5C 98.0684,139.507 102.235,144.341 106.5,149C 126.834,159.778 143.167,155.445 155.5,136C 156.517,133.213 156.684,130.38 156,127.5C 154.308,122.2 152.808,116.867 151.5,111.5C 153.381,115.272 155.547,118.939 158,122.5C 158.893,125.433 159.393,128.433 159.5,131.5C 156.763,136.055 154.763,141.055 153.5,146.5C 146.888,149.139 140.554,152.306 134.5,156C 132.091,156.935 129.591,157.435 127,157.5C 119.856,156.347 113.023,154.18 106.5,151C 105.257,149.846 104.257,148.512 103.5,147C 102.552,146.517 101.552,146.351 100.5,146.5C 97.5711,142.394 94.4044,138.394 91,134.5C 88.0074,121.327 93.174,113.66 106.5,111.5 Z"/></g>
<g><path style="opacity:1" fill="#439d04" d="M 142.5,97.5 C 143.391,98.1098 144.391,98.4431 145.5,98.5C 150.522,105.498 155.356,112.831 160,120.5C 162.016,129.121 162.516,137.788 161.5,146.5C 159.112,147.219 157.612,148.885 157,151.5C 146.267,159.588 134.1,162.755 120.5,161C 115.909,159.187 111.242,157.687 106.5,156.5C 105.165,154.203 103.332,152.203 101,150.5C 100.51,149.207 100.343,147.873 100.5,146.5C 101.552,146.351 102.552,146.517 103.5,147C 104.257,148.512 105.257,149.846 106.5,151C 113.023,154.18 119.856,156.347 127,157.5C 129.591,157.435 132.091,156.935 134.5,156C 140.554,152.306 146.888,149.139 153.5,146.5C 154.763,141.055 156.763,136.055 159.5,131.5C 159.393,128.433 158.893,125.433 158,122.5C 155.547,118.939 153.381,115.272 151.5,111.5C 149.168,107.532 146.335,103.866 143,100.5C 142.517,99.552 142.351,98.552 142.5,97.5 Z"/></g>
<g><path style="opacity:1" fill="#ca705f" d="M 67.5,120.5 C 66.8777,122.335 65.5444,123.502 63.5,124C 51.6538,124.894 47.8205,130.728 52,141.5C 57.5233,148.022 63.3567,154.188 69.5,160C 73.5,160.667 77.5,160.667 81.5,160C 86.0142,157.534 87.5142,153.701 86,148.5C 83.4814,139.475 80.9814,130.475 78.5,121.5C 77.209,121.737 76.209,121.404 75.5,120.5C 76.8333,120.5 78.1667,120.5 79.5,120.5C 82.1057,126.133 84.7724,131.799 87.5,137.5C 88.325,138.386 89.325,138.719 90.5,138.5C 90.5,139.833 90.5,141.167 90.5,142.5C 90.7145,148.67 91.7145,154.67 93.5,160.5C 92.276,162.839 92.276,165.172 93.5,167.5C 95.0089,165.085 96.6755,164.919 98.5,167C 98.1667,167.333 97.8333,167.667 97.5,168C 90.8337,168.112 84.1671,167.779 77.5,167C 72.9927,164.998 68.326,163.498 63.5,162.5C 60.7068,159.271 57.3735,156.771 53.5,155C 49.7886,149.744 45.9552,144.578 42,139.5C 41.7638,137.236 41.2638,135.069 40.5,133C 42.8788,129.965 45.8788,127.631 49.5,126C 53.7031,124.791 57.7031,123.124 61.5,121C 63.4727,120.505 65.4727,120.338 67.5,120.5 Z"/></g>
<g><path style="opacity:1" fill="#fb917b" d="M 67.5,123.5 C 70.1667,123.5 72.8333,123.5 75.5,123.5C 78.0323,130.069 79.699,136.736 80.5,143.5C 78.9405,145.695 76.7739,146.695 74,146.5C 54.6181,143.208 52.4514,135.541 67.5,123.5 Z"/></g>
<g><path style="opacity:1" fill="#2c6303" d="M 145.5,98.5 C 146.922,99.925 148.589,100.925 150.5,101.5C 152.833,104.833 155.167,108.167 157.5,111.5C 159.36,115.083 161.027,118.749 162.5,122.5C 164.106,125.986 165.106,129.653 165.5,133.5C 165.827,138.544 165.494,143.544 164.5,148.5C 160.659,153.504 156.659,158.337 152.5,163C 149.929,163.901 147.596,165.234 145.5,167C 140.943,166.894 136.943,168.228 133.5,171C 130.833,171.667 128.167,171.667 125.5,171C 122.223,169.857 118.89,169.023 115.5,168.5C 113.246,167.585 111.246,166.252 109.5,164.5C 108.564,163.026 107.23,162.026 105.5,161.5C 103.925,158.418 101.758,155.751 99,153.5C 97.2581,149.433 95.4248,145.433 93.5,141.5C 95.5549,143.555 97.8883,145.221 100.5,146.5C 100.343,147.873 100.51,149.207 101,150.5C 103.332,152.203 105.165,154.203 106.5,156.5C 110.001,161.091 114.667,163.924 120.5,165C 135.212,167.25 147.712,163.083 158,152.5C 159.394,150.612 160.56,148.612 161.5,146.5C 162.516,137.788 162.016,129.121 160,120.5C 155.356,112.831 150.522,105.498 145.5,98.5 Z"/></g>
<g><path style="opacity:1" fill="#388103" d="M 161.5,146.5 C 160.56,148.612 159.394,150.612 158,152.5C 147.712,163.083 135.212,167.25 120.5,165C 114.667,163.924 110.001,161.091 106.5,156.5C 111.242,157.687 115.909,159.187 120.5,161C 134.1,162.755 146.267,159.588 157,151.5C 157.612,148.885 159.112,147.219 161.5,146.5 Z"/></g>
<g><path style="opacity:1" fill="#b66556" d="M 69.5,119.5 C 69.1583,120.338 68.4916,120.672 67.5,120.5C 65.4727,120.338 63.4727,120.505 61.5,121C 57.7031,123.124 53.7031,124.791 49.5,126C 45.8788,127.631 42.8788,129.965 40.5,133C 41.2638,135.069 41.7638,137.236 42,139.5C 45.9552,144.578 49.7886,149.744 53.5,155C 57.3735,156.771 60.7068,159.271 63.5,162.5C 68.326,163.498 72.9927,164.998 77.5,167C 84.1671,167.779 90.8337,168.112 97.5,168C 97.8333,167.667 98.1667,167.333 98.5,167C 96.6755,164.919 95.0089,165.085 93.5,167.5C 92.276,165.172 92.276,162.839 93.5,160.5C 91.7145,154.67 90.7145,148.67 90.5,142.5C 92.7365,146.65 94.9032,150.984 97,155.5C 97.9078,157.439 99.4078,158.439 101.5,158.5C 102.112,162.163 102.279,165.83 102,169.5C 98.958,171.889 95.458,172.889 91.5,172.5C 80.5446,172.902 70.2113,170.736 60.5,166C 58.2279,163.973 56.0613,161.806 54,159.5C 48.4739,151.1 42.4739,143.1 36,135.5C 34.5432,132.634 34.2099,129.634 35,126.5C 43.6678,126.165 51.8344,123.999 59.5,120C 62.8168,119.502 66.1501,119.335 69.5,119.5 Z"/></g>
<g><path style="opacity:1" fill="#319708" d="M 167.5,163.5 C 168.222,163.918 168.722,164.584 169,165.5C 169.829,170.533 169.662,175.533 168.5,180.5C 167.85,182.184 166.85,183.517 165.5,184.5C 168.62,172.278 164.62,168.278 153.5,172.5C 158.159,169.503 162.825,166.503 167.5,163.5 Z"/></g>
<g><path style="opacity:1" fill="#1e3c09" d="M 165.5,133.5 C 166.167,133.5 166.5,133.833 166.5,134.5C 166.866,136.905 167.533,139.238 168.5,141.5C 168.154,142.849 167.821,144.183 167.5,145.5C 166.691,147.292 166.191,149.292 166,151.5C 164.624,152.705 163.458,154.038 162.5,155.5C 159.42,160.916 155.086,164.916 149.5,167.5C 143.414,169.559 137.414,171.559 131.5,173.5C 126.193,173.88 121.193,172.88 116.5,170.5C 116.167,169.833 115.833,169.167 115.5,168.5C 118.89,169.023 122.223,169.857 125.5,171C 128.167,171.667 130.833,171.667 133.5,171C 136.943,168.228 140.943,166.894 145.5,167C 147.596,165.234 149.929,163.901 152.5,163C 156.659,158.337 160.659,153.504 164.5,148.5C 165.494,143.544 165.827,138.544 165.5,133.5 Z"/></g>
<g><path style="opacity:1" fill="#22560f" d="M 168.5,158.5 C 171.597,162.694 173.597,167.361 174.5,172.5C 173.833,174.833 173.167,177.167 172.5,179.5C 170.555,184.761 167.222,188.761 162.5,191.5C 163.206,189.328 164.206,187.328 165.5,185.5C 165.5,185.167 165.5,184.833 165.5,184.5C 166.85,183.517 167.85,182.184 168.5,180.5C 169.662,175.533 169.829,170.533 169,165.5C 168.722,164.584 168.222,163.918 167.5,163.5C 167.216,161.585 167.549,159.919 168.5,158.5 Z"/></g>
<g><path style="opacity:1" fill="#a366d6" d="M 116.5,170.5 C 121.193,172.88 126.193,173.88 131.5,173.5C 132.239,173.369 132.906,173.536 133.5,174C 128.411,177.194 122.744,178.694 116.5,178.5C 114.36,178.444 112.694,177.777 111.5,176.5C 111.833,175.833 112.167,175.167 112.5,174.5C 114.194,173.473 115.527,172.139 116.5,170.5 Z"/></g>
<g><path style="opacity:1" fill="#7e463b" d="M 40.5,154.5 C 41.675,154.281 42.675,154.614 43.5,155.5C 46.8963,161.826 51.5629,166.826 57.5,170.5C 63.0175,172.814 68.6842,174.648 74.5,176C 86.6789,178.469 97.6789,176.136 107.5,169C 105.722,166.865 105.055,164.365 105.5,161.5C 107.23,162.026 108.564,163.026 109.5,164.5C 109.953,168.426 108.62,171.592 105.5,174C 97.8344,176.709 90.0011,178.542 82,179.5C 71.7459,180.223 62.2459,178.056 53.5,173C 51,169.167 47.8333,166 44,163.5C 42.3778,160.678 41.2111,157.678 40.5,154.5 Z"/></g>
<g><path style="opacity:1" fill="#452a25" d="M 29.5,141.5 C 33.592,151.005 38.7587,160.005 45,168.5C 54.9677,178.896 67.1344,183.229 81.5,181.5C 86.5,181.167 91.5,180.833 96.5,180.5C 101.448,177.517 106.781,175.517 112.5,174.5C 112.167,175.167 111.833,175.833 111.5,176.5C 108.446,178.694 105.112,180.361 101.5,181.5C 99.8828,182.038 98.2161,182.371 96.5,182.5C 95.609,183.11 94.609,183.443 93.5,183.5C 76.7192,186.469 61.3859,183.136 47.5,173.5C 44.4715,170.141 41.4715,166.808 38.5,163.5C 34.9934,158.49 31.9934,153.157 29.5,147.5C 29.5,145.5 29.5,143.5 29.5,141.5 Z"/></g>
<g><path style="opacity:1" fill="#452d5a" d="M 168.5,153.5 C 168.5,155.167 168.5,156.833 168.5,158.5C 167.549,159.919 167.216,161.585 167.5,163.5C 162.825,166.503 158.159,169.503 153.5,172.5C 147.314,175.422 141.648,179.089 136.5,183.5C 133.167,184.833 129.833,186.167 126.5,187.5C 131.326,184.327 135.659,180.494 139.5,176C 146.042,175.119 151.376,172.119 155.5,167C 162.302,165.546 165.969,161.38 166.5,154.5C 166.842,153.662 167.508,153.328 168.5,153.5 Z"/></g>
<g><path style="opacity:1" fill="#663930" d="M 58.5,117.5 C 56.8494,118.547 55.1828,119.714 53.5,121C 47.1815,122.065 40.8482,123.065 34.5,124C 33.3333,124.5 32.5,125.333 32,126.5C 32.1819,132.912 33.1819,139.246 35,145.5C 36.6303,148.629 38.4636,151.629 40.5,154.5C 41.2111,157.678 42.3778,160.678 44,163.5C 47.8333,166 51,169.167 53.5,173C 62.2459,178.056 71.7459,180.223 82,179.5C 90.0011,178.542 97.8344,176.709 105.5,174C 108.62,171.592 109.953,168.426 109.5,164.5C 111.246,166.252 113.246,167.585 115.5,168.5C 115.833,169.167 116.167,169.833 116.5,170.5C 115.527,172.139 114.194,173.473 112.5,174.5C 106.781,175.517 101.448,177.517 96.5,180.5C 91.5,180.833 86.5,181.167 81.5,181.5C 67.1344,183.229 54.9677,178.896 45,168.5C 38.7587,160.005 33.592,151.005 29.5,141.5C 28.3889,136.584 28.2223,131.584 29,126.5C 30.1667,124 32,122.167 34.5,121C 33.2625,120.768 32.2625,120.268 31.5,119.5C 40.5948,119.703 49.5948,119.036 58.5,117.5 Z"/></g>
<g><path style="opacity:1" fill="#8050a8" d="M 149.5,167.5 C 151.49,167.993 151.49,169.16 149.5,171C 146.007,172.791 142.341,174.124 138.5,175C 130.315,181.55 120.982,185.384 110.5,186.5C 107.399,185.981 104.399,185.147 101.5,184C 100.402,183.23 100.402,182.397 101.5,181.5C 105.112,180.361 108.446,178.694 111.5,176.5C 112.694,177.777 114.36,178.444 116.5,178.5C 122.744,178.694 128.411,177.194 133.5,174C 132.906,173.536 132.239,173.369 131.5,173.5C 137.414,171.559 143.414,169.559 149.5,167.5 Z"/></g>
<g><path style="opacity:1" fill="#4040bf" d="M 189.5,225.5 C 189.426,227.411 188.426,228.578 186.5,229C 179.5,229.667 172.5,229.667 165.5,229C 157.517,222.904 149.017,217.737 140,213.5C 138.788,212.224 137.955,210.724 137.5,209C 138.205,206.458 139.539,204.292 141.5,202.5C 145.22,202.436 148.886,201.936 152.5,201C 155.833,199 159.167,197 162.5,195C 167.621,193.737 172.621,192.071 177.5,190C 174.346,185.768 175.346,183.268 180.5,182.5C 181.241,185.859 181.574,189.193 181.5,192.5C 184.308,195.041 187.641,196.374 191.5,196.5C 192.524,199.9 194.858,202.233 198.5,203.5C 200.169,209.147 199.502,214.48 196.5,219.5C 193.909,221.281 191.575,223.281 189.5,225.5 Z"/></g>
<g><path style="opacity:1" fill="#653f84" d="M 166.5,154.5 C 165.969,161.38 162.302,165.546 155.5,167C 151.376,172.119 146.042,175.119 139.5,176C 135.659,180.494 131.326,184.327 126.5,187.5C 116.95,190.377 107.617,189.877 98.5,186C 97.1772,185.184 96.5106,184.017 96.5,182.5C 98.2161,182.371 99.8828,182.038 101.5,181.5C 100.402,182.397 100.402,183.23 101.5,184C 104.399,185.147 107.399,185.981 110.5,186.5C 120.982,185.384 130.315,181.55 138.5,175C 142.341,174.124 146.007,172.791 149.5,171C 151.49,169.16 151.49,167.993 149.5,167.5C 155.086,164.916 159.42,160.916 162.5,155.5C 163.833,155.167 165.167,154.833 166.5,154.5 Z"/></g>
<g><path style="opacity:1" fill="#3838a9" d="M 183.5,178.5 C 185.875,184.241 189.041,189.574 193,194.5C 195.692,196.862 198.359,199.196 201,201.5C 202.275,210.053 200.108,217.553 194.5,224C 192.846,224.608 191.179,225.108 189.5,225.5C 191.575,223.281 193.909,221.281 196.5,219.5C 199.502,214.48 200.169,209.147 198.5,203.5C 194.858,202.233 192.524,199.9 191.5,196.5C 187.641,196.374 184.308,195.041 181.5,192.5C 181.574,189.193 181.241,185.859 180.5,182.5C 175.346,183.268 174.346,185.768 177.5,190C 172.621,192.071 167.621,193.737 162.5,195C 159.167,197 155.833,199 152.5,201C 148.886,201.936 145.22,202.436 141.5,202.5C 147.077,200.05 152.743,197.55 158.5,195C 160.093,194.051 161.426,192.885 162.5,191.5C 167.222,188.761 170.555,184.761 172.5,179.5C 175.893,175.989 179.559,175.656 183.5,178.5 Z"/></g>
<g><path style="opacity:1" fill="#3a264b" d="M 96.5,182.5 C 96.5106,184.017 97.1772,185.184 98.5,186C 107.617,189.877 116.95,190.377 126.5,187.5C 126.5,188.167 126.167,188.5 125.5,188.5C 124.391,188.557 123.391,188.89 122.5,189.5C 121.391,189.557 120.391,189.89 119.5,190.5C 117.565,191.15 115.565,191.483 113.5,191.5C 105.679,191.586 99.0128,188.919 93.5,183.5C 94.609,183.443 95.609,183.11 96.5,182.5 Z"/></g>
<g><path style="opacity:1" fill="#3dbe09" d="M 165.5,184.5 C 165.5,184.833 165.5,185.167 165.5,185.5C 153.586,194.377 140.253,197.21 125.5,194C 122.982,192.19 122.982,190.357 125.5,188.5C 126.167,188.5 126.5,188.167 126.5,187.5C 129.833,186.167 133.167,184.833 136.5,183.5C 141.648,179.089 147.314,175.422 153.5,172.5C 164.62,168.278 168.62,172.278 165.5,184.5 Z"/></g>
<g><path style="opacity:1" fill="#4be50c" d="M 136.5,183.5 C 137.873,183.657 139.207,183.49 140.5,183C 146.157,178.836 152.49,176.336 159.5,175.5C 159.858,179.95 158.192,183.45 154.5,186C 148.524,187.5 142.524,188.667 136.5,189.5C 136.5,187.5 136.5,185.5 136.5,183.5 Z"/></g>
<g><path style="opacity:1" fill="#201f54" d="M 174.5,172.5 C 179.013,172.588 183.013,174.088 186.5,177C 193.364,182.698 199.697,188.865 205.5,195.5C 206.371,198.112 207.037,200.779 207.5,203.5C 207.34,205.153 206.674,206.486 205.5,207.5C 205.664,204.813 205.497,202.146 205,199.5C 197.363,193.03 190.196,186.03 183.5,178.5C 179.559,175.656 175.893,175.989 172.5,179.5C 173.167,177.167 173.833,174.833 174.5,172.5 Z"/></g>
<g><path style="opacity:1" fill="#319707" d="M 165.5,185.5 C 164.206,187.328 163.206,189.328 162.5,191.5C 158.215,193.363 153.882,195.03 149.5,196.5C 140.865,198.68 132.198,198.514 123.5,196C 121.316,194.102 120.983,191.936 122.5,189.5C 123.391,188.89 124.391,188.557 125.5,188.5C 122.982,190.357 122.982,192.19 125.5,194C 140.253,197.21 153.586,194.377 165.5,185.5 Z"/></g>
<g><path style="opacity:1" fill="#236d05" d="M 122.5,189.5 C 120.983,191.936 121.316,194.102 123.5,196C 132.198,198.514 140.865,198.68 149.5,196.5C 146.403,198.292 143.07,199.792 139.5,201C 132.228,202.517 125.561,201.351 119.5,197.5C 118.286,195.141 118.286,192.808 119.5,190.5C 120.391,189.89 121.391,189.557 122.5,189.5 Z"/></g>
<g><path style="opacity:1" fill="#1e4f0c" d="M 119.5,190.5 C 118.286,192.808 118.286,195.141 119.5,197.5C 125.561,201.351 132.228,202.517 139.5,201C 143.07,199.792 146.403,198.292 149.5,196.5C 153.882,195.03 158.215,193.363 162.5,191.5C 161.426,192.885 160.093,194.051 158.5,195C 152.743,197.55 147.077,200.05 141.5,202.5C 140.833,202.5 140.167,202.5 139.5,202.5C 137.118,204.046 134.451,204.713 131.5,204.5C 124.43,203.38 118.597,200.047 114,194.5C 113.517,193.552 113.351,192.552 113.5,191.5C 115.565,191.483 117.565,191.15 119.5,190.5 Z"/></g>
<g><path style="opacity:1" fill="#3f3509" d="M 205.5,195.5 C 208.187,195.336 210.854,195.503 213.5,196C 219.997,199.414 226.33,203.081 232.5,207C 236.269,210.706 238.269,215.206 238.5,220.5C 237.625,218.432 236.459,216.432 235,214.5C 234.536,215.094 234.369,215.761 234.5,216.5C 227.986,211.483 221.986,205.983 216.5,200C 212.392,198.665 209.392,199.832 207.5,203.5C 207.037,200.779 206.371,198.112 205.5,195.5 Z"/></g>
<g><path style="opacity:1" fill="#4b4be1" d="M 172.5,193.5 C 177.699,195.93 183.032,198.097 188.5,200C 191.295,201.793 193.795,203.96 196,206.5C 196.357,210.51 196.19,214.51 195.5,218.5C 192.111,219.691 188.778,221.191 185.5,223C 181.167,223.667 176.833,223.667 172.5,223C 165.933,219.132 159.099,215.632 152,212.5C 146.988,214.416 142.654,213.416 139,209.5C 138.552,207.591 139.385,206.424 141.5,206C 144.753,204.964 148.086,204.297 151.5,204C 157.66,198.678 164.66,195.178 172.5,193.5 Z"/></g>
<g><path style="opacity:1" fill="#5756f8" d="M 164.5,199.5 C 169.58,199.25 174.58,199.75 179.5,201C 180.257,202.512 181.257,203.846 182.5,205C 187.051,206.049 189.051,208.882 188.5,213.5C 185.69,215.068 182.69,216.401 179.5,217.5C 177.972,216.139 176.305,214.972 174.5,214C 167.963,213.881 161.63,212.714 155.5,210.5C 153.553,208.724 153.22,206.724 154.5,204.5C 157.925,202.787 161.259,201.121 164.5,199.5 Z"/></g>
<g><path style="opacity:1" fill="#766307" d="M 234.5,216.5 C 236.128,219.419 237.462,222.419 238.5,225.5C 232.631,218.464 225.964,212.297 218.5,207C 215.833,206.333 213.167,206.333 210.5,207C 208.845,208.444 208.178,210.278 208.5,212.5C 205.339,215.475 203.172,219.142 202,223.5C 200.729,224.883 199.229,225.883 197.5,226.5C 197.557,225.391 197.89,224.391 198.5,223.5C 202.438,218.949 204.772,213.615 205.5,207.5C 206.674,206.486 207.34,205.153 207.5,203.5C 209.392,199.832 212.392,198.665 216.5,200C 221.986,205.983 227.986,211.483 234.5,216.5 Z"/></g>
<g><path style="opacity:1" fill="#2e2e8a" d="M 183.5,178.5 C 190.196,186.03 197.363,193.03 205,199.5C 205.497,202.146 205.664,204.813 205.5,207.5C 204.772,213.615 202.438,218.949 198.5,223.5C 195.064,226.479 191.397,229.312 187.5,232C 180.167,232.667 172.833,232.667 165.5,232C 156.349,226.179 147.349,220.179 138.5,214C 137.552,213.517 136.552,213.351 135.5,213.5C 135.266,209.196 136.6,205.529 139.5,202.5C 140.167,202.5 140.833,202.5 141.5,202.5C 139.539,204.292 138.205,206.458 137.5,209C 137.955,210.724 138.788,212.224 140,213.5C 149.017,217.737 157.517,222.904 165.5,229C 172.5,229.667 179.5,229.667 186.5,229C 188.426,228.578 189.426,227.411 189.5,225.5C 191.179,225.108 192.846,224.608 194.5,224C 200.108,217.553 202.275,210.053 201,201.5C 198.359,199.196 195.692,196.862 193,194.5C 189.041,189.574 185.875,184.241 183.5,178.5 Z"/></g>
<g><path style="opacity:1" fill="#282560" d="M 139.5,202.5 C 136.6,205.529 135.266,209.196 135.5,213.5C 136.552,213.351 137.552,213.517 138.5,214C 147.349,220.179 156.349,226.179 165.5,232C 172.833,232.667 180.167,232.667 187.5,232C 191.397,229.312 195.064,226.479 198.5,223.5C 197.89,224.391 197.557,225.391 197.5,226.5C 195.367,228.091 193.701,230.091 192.5,232.5C 169.67,238.582 150.17,232.915 134,215.5C 131.922,212.13 131.089,208.463 131.5,204.5C 134.451,204.713 137.118,204.046 139.5,202.5 Z"/></g>
<g><path style="opacity:1" fill="#f0cb0e" d="M 226.5,218.5 C 226.973,219.906 227.973,220.573 229.5,220.5C 231.113,223.132 232.78,225.798 234.5,228.5C 233.687,229.814 232.687,230.981 231.5,232C 221.836,232.075 212.169,231.741 202.5,231C 201.483,229.951 201.316,228.784 202,227.5C 206.729,223.558 210.896,219.058 214.5,214C 218.526,212.663 221.526,213.83 223.5,217.5C 224.417,218.127 225.417,218.461 226.5,218.5 Z"/></g>
<g><path style="opacity:1" fill="#d1b00a" d="M 226.5,218.5 C 225.417,218.461 224.417,218.127 223.5,217.5C 221.526,213.83 218.526,212.663 214.5,214C 210.896,219.058 206.729,223.558 202,227.5C 201.316,228.784 201.483,229.951 202.5,231C 212.169,231.741 221.836,232.075 231.5,232C 232.687,230.981 233.687,229.814 234.5,228.5C 232.78,225.798 231.113,223.132 229.5,220.5C 232.168,222.336 234.334,224.669 236,227.5C 236.536,229.567 236.036,231.401 234.5,233C 224.506,233.5 214.506,233.666 204.5,233.5C 201.916,233.431 199.916,232.265 198.5,230C 203.365,224.986 206.698,219.153 208.5,212.5C 213.258,207.202 218.092,207.202 223,212.5C 223.564,214.887 224.73,216.887 226.5,218.5 Z"/></g>
<g><path style="opacity:1" fill="#b59908" d="M 238.5,225.5 C 238.663,227.857 238.497,230.19 238,232.5C 236.348,233.399 234.848,234.399 233.5,235.5C 223.658,235.177 213.992,234.511 204.5,233.5C 214.506,233.666 224.506,233.5 234.5,233C 236.036,231.401 236.536,229.567 236,227.5C 234.334,224.669 232.168,222.336 229.5,220.5C 227.973,220.573 226.973,219.906 226.5,218.5C 224.73,216.887 223.564,214.887 223,212.5C 218.092,207.202 213.258,207.202 208.5,212.5C 208.178,210.278 208.845,208.444 210.5,207C 213.167,206.333 215.833,206.333 218.5,207C 225.964,212.297 232.631,218.464 238.5,225.5 Z"/></g>
<g><path style="opacity:1" fill="#9a8207" d="M 208.5,212.5 C 206.698,219.153 203.365,224.986 198.5,230C 199.916,232.265 201.916,233.431 204.5,233.5C 213.992,234.511 223.658,235.177 233.5,235.5C 220.893,237.097 208.226,236.597 195.5,234C 194.742,232.636 195.242,231.469 197,230.5C 197.49,229.207 197.657,227.873 197.5,226.5C 199.229,225.883 200.729,224.883 202,223.5C 203.172,219.142 205.339,215.475 208.5,212.5 Z"/></g>
<g><path style="opacity:1" fill="#64571c" d="M 238.5,220.5 C 240.412,224.194 240.912,228.194 240,232.5C 238.773,234.726 236.939,236.226 234.5,237C 221.021,239.357 207.688,238.69 194.5,235C 193.244,234.583 192.577,233.75 192.5,232.5C 193.701,230.091 195.367,228.091 197.5,226.5C 197.657,227.873 197.49,229.207 197,230.5C 195.242,231.469 194.742,232.636 195.5,234C 208.226,236.597 220.893,237.097 233.5,235.5C 234.848,234.399 236.348,233.399 238,232.5C 238.497,230.19 238.663,227.857 238.5,225.5C 237.462,222.419 236.128,219.419 234.5,216.5C 234.369,215.761 234.536,215.094 235,214.5C 236.459,216.432 237.625,218.432 238.5,220.5 Z"/></g>
</svg>
