<?xml version="1.0" encoding="UTF-8"?>
<!DOCTYPE svg PUBLIC "-//W3C//DTD SVG 1.1//EN" "http://www.w3.org/Graphics/SVG/1.1/DTD/svg11.dtd">
<svg xmlns="http://www.w3.org/2000/svg" version="1.1" width="64px" height="64px" style="shape-rendering:geometricPrecision; text-rendering:geometricPrecision; image-rendering:optimizeQuality; fill-rule:evenodd; clip-rule:evenodd" xmlns:xlink="http://www.w3.org/1999/xlink">
<g><path style="opacity:1" fill="#fcfcfc" d="M -0.5,-0.5 C 20.8333,-0.5 42.1667,-0.5 63.5,-0.5C 63.5,20.8333 63.5,42.1667 63.5,63.5C 42.1667,63.5 20.8333,63.5 -0.5,63.5C -0.5,42.1667 -0.5,20.8333 -0.5,-0.5 Z"/></g>
<g><path style="opacity:1" fill="#435775" d="M 25.5,3.5 C 25.5,3.83333 25.5,4.16667 25.5,4.5C 23.2646,4.20528 21.2646,4.53862 19.5,5.5C 17.9826,5.51056 16.8159,6.17723 16,7.5C 14.6439,6.61983 13.1439,6.28649 11.5,6.5C 12.0577,5.21009 13.0577,4.37675 14.5,4C 18.1516,3.50137 21.8183,3.3347 25.5,3.5 Z"/></g>
<g><path style="opacity:1" fill="#b80eaa" d="M 27.5,4.5 C 30.5299,3.16341 33.5299,3.49675 36.5,5.5C 39.6629,8.3169 41.9962,11.6502 43.5,15.5C 43.5,15.8333 43.5,16.1667 43.5,16.5C 42.3951,15.3995 41.0618,14.7329 39.5,14.5C 38.2892,7.96455 34.2892,4.63122 27.5,4.5 Z"/></g>
<g><path style="opacity:1" fill="#7e1d75" d="M 44.5,14.5 C 44.5,15.1667 44.1667,15.5 43.5,15.5C 41.9962,11.6502 39.6629,8.3169 36.5,5.5C 33.5299,3.49675 30.5299,3.16341 27.5,4.5C 26.8333,4.5 26.1667,4.5 25.5,4.5C 25.5,4.16667 25.5,3.83333 25.5,3.5C 35.7102,0.764764 42.0435,4.43143 44.5,14.5 Z"/></g>
<g><path style="opacity:1" fill="#457e48" d="M 19.5,5.5 C 18.3995,6.60486 17.7329,7.93819 17.5,9.5C 15.7868,10.6354 15.1201,12.302 15.5,14.5C 13.283,13.6314 10.9496,13.298 8.5,13.5C 10.2646,12.5386 12.2646,12.2053 14.5,12.5C 14.5,11.5 14.5,10.5 14.5,9.5C 12.0733,9.52304 9.73999,10.023 7.5,11C 6.22641,11.9772 6.22641,12.8106 7.5,13.5C 5.80363,15.5248 4.13696,17.5248 2.5,19.5C 2.70796,13.2834 5.70796,8.95008 11.5,6.5C 13.1439,6.28649 14.6439,6.61983 16,7.5C 16.8159,6.17723 17.9826,5.51056 19.5,5.5 Z"/></g>
<g><path style="opacity:1" fill="#13cf67" d="M 19.5,5.5 C 25.2595,5.29733 30.5928,6.63066 35.5,9.5C 36.4656,11.396 36.7989,13.396 36.5,15.5C 35.5,15.5 34.5,15.5 33.5,15.5C 29.2577,10.7167 23.9243,8.71669 17.5,9.5C 17.7329,7.93819 18.3995,6.60486 19.5,5.5 Z"/></g>
<g><path style="opacity:1" fill="#73dc69" d="M 8.5,13.5 C 8.16667,13.5 7.83333,13.5 7.5,13.5C 6.22641,12.8106 6.22641,11.9772 7.5,11C 9.73999,10.023 12.0733,9.52304 14.5,9.5C 14.5,10.5 14.5,11.5 14.5,12.5C 12.2646,12.2053 10.2646,12.5386 8.5,13.5 Z"/></g>
<g><path style="opacity:1" fill="#17763e" d="M 19.5,5.5 C 21.2646,4.53862 23.2646,4.20528 25.5,4.5C 26.1667,4.5 26.8333,4.5 27.5,4.5C 34.2892,4.63122 38.2892,7.96455 39.5,14.5C 38.3065,15.2719 37.3065,16.2719 36.5,17.5C 36.1667,17.5 35.8333,17.5 35.5,17.5C 34.5,17.1667 33.8333,16.5 33.5,15.5C 34.5,15.5 35.5,15.5 36.5,15.5C 36.7989,13.396 36.4656,11.396 35.5,9.5C 30.5928,6.63066 25.2595,5.29733 19.5,5.5 Z"/></g>
<g><path style="opacity:1" fill="#313c8f" d="M 7.5,13.5 C 7.83333,13.5 8.16667,13.5 8.5,13.5C 10.9496,13.298 13.283,13.6314 15.5,14.5C 15.5,15.8333 15.5,17.1667 15.5,18.5C 14.1614,14.1134 11.6614,13.4467 8,16.5C 4.56013,24.2955 7.06013,27.9622 15.5,27.5C 15.3893,28.1174 15.056,28.6174 14.5,29C 12.1902,29.4966 9.85684,29.6633 7.5,29.5C 6.60895,28.8902 5.60895,28.5569 4.5,28.5C 3.07209,25.6967 2.40542,22.6967 2.5,19.5C 4.13696,17.5248 5.80363,15.5248 7.5,13.5 Z"/></g>
<g><path style="opacity:1" fill="#b24f96" d="M 17.5,9.5 C 23.9243,8.71669 29.2577,10.7167 33.5,15.5C 33.8333,16.5 34.5,17.1667 35.5,17.5C 34.962,19.1172 34.6287,20.7839 34.5,22.5C 33.1266,22.3433 31.7932,22.51 30.5,23C 27.4721,24.8445 24.4721,26.6778 21.5,28.5C 19.8333,27.8333 18.1667,27.1667 16.5,26.5C 16.7214,23.7212 16.388,21.0545 15.5,18.5C 15.5,17.1667 15.5,15.8333 15.5,14.5C 15.1201,12.302 15.7868,10.6354 17.5,9.5 Z"/></g>
<g><path style="opacity:1" fill="#f16ccc" d="M 22.5,14.5 C 25.2492,14.2739 27.9159,14.6072 30.5,15.5C 31.4519,17.0453 31.7852,18.712 31.5,20.5C 28.4124,20.1966 26.7458,21.5299 26.5,24.5C 24.1944,24.9926 21.861,25.3259 19.5,25.5C 19.3354,22.4816 19.502,19.4816 20,16.5C 20.9947,15.9341 21.828,15.2674 22.5,14.5 Z"/></g>
<g><path style="opacity:1" fill="#485bdd" d="M 15.5,18.5 C 16.388,21.0545 16.7214,23.7212 16.5,26.5C 16.5,27.1667 16.1667,27.5 15.5,27.5C 7.06013,27.9622 4.56013,24.2955 8,16.5C 11.6614,13.4467 14.1614,14.1134 15.5,18.5 Z"/></g>
<g><path style="opacity:1" fill="#347a45" d="M 44.5,14.5 C 47.2506,16.549 48.5839,19.3823 48.5,23C 48.5033,25.4839 47.8366,27.6505 46.5,29.5C 46.6716,28.5084 46.3382,27.8417 45.5,27.5C 45.7583,23.6331 45.0916,19.9664 43.5,16.5C 43.5,16.1667 43.5,15.8333 43.5,15.5C 44.1667,15.5 44.5,15.1667 44.5,14.5 Z"/></g>
<g><path style="opacity:1" fill="#ac45cc" d="M 35.5,17.5 C 35.8333,17.5 36.1667,17.5 36.5,17.5C 38.1439,17.2865 39.6439,17.6198 41,18.5C 42.4301,21.3527 43.2634,24.3527 43.5,27.5C 43.0269,28.9063 42.0269,29.573 40.5,29.5C 40.1667,29.5 39.8333,29.5 39.5,29.5C 38.2464,26.9066 36.5798,24.5732 34.5,22.5C 34.6287,20.7839 34.962,19.1172 35.5,17.5 Z"/></g>
<g><path style="opacity:1" fill="#652878" d="M 39.5,14.5 C 41.0618,14.7329 42.3951,15.3995 43.5,16.5C 45.0916,19.9664 45.7583,23.6331 45.5,27.5C 44.8333,27.5 44.1667,27.5 43.5,27.5C 43.2634,24.3527 42.4301,21.3527 41,18.5C 39.6439,17.6198 38.1439,17.2865 36.5,17.5C 37.3065,16.2719 38.3065,15.2719 39.5,14.5 Z"/></g>
<g><path style="opacity:1" fill="#9d3860" d="M 43.5,27.5 C 44.1667,27.5 44.8333,27.5 45.5,27.5C 46.3382,27.8417 46.6716,28.5084 46.5,29.5C 46.2986,33.1302 44.632,35.7969 41.5,37.5C 41.4249,34.7938 41.0916,32.1272 40.5,29.5C 42.0269,29.573 43.0269,28.9063 43.5,27.5 Z"/></g>
<g><path style="opacity:1" fill="#548c7f" d="M 4.5,28.5 C 5.60895,28.5569 6.60895,28.8902 7.5,29.5C 7.08095,33.7727 7.74762,37.7727 9.5,41.5C 4.83503,38.1557 3.16836,33.8223 4.5,28.5 Z"/></g>
<g><path style="opacity:1" fill="#4fb606" d="M 34.5,22.5 C 36.5798,24.5732 38.2464,26.9066 39.5,29.5C 39.7771,32.4475 39.4438,35.2809 38.5,38C 35.093,39.9349 31.4264,40.7682 27.5,40.5C 25.2632,38.3529 23.2632,36.0196 21.5,33.5C 21.5,33.1667 21.5,32.8333 21.5,32.5C 21.5,31.1667 21.5,29.8333 21.5,28.5C 24.4721,26.6778 27.4721,24.8445 30.5,23C 31.7932,22.51 33.1266,22.3433 34.5,22.5 Z"/></g>
<g><path style="opacity:1" fill="#6cf30b" d="M 29.5,25.5 C 31.861,25.6741 34.1944,26.0074 36.5,26.5C 36.9549,35.7028 32.9549,38.0361 24.5,33.5C 24.0688,32.7065 23.7355,31.8732 23.5,31C 25.522,29.2525 27.522,27.4192 29.5,25.5 Z"/></g>
<g><path style="opacity:1" fill="#e6816d" d="M 21.5,32.5 C 21.5,32.8333 21.5,33.1667 21.5,33.5C 21.5,35.8333 21.5,38.1667 21.5,40.5C 17.1041,40.1207 14.1041,37.7873 12.5,33.5C 13.1293,31.0029 14.796,29.6696 17.5,29.5C 19.4433,29.7867 20.7767,30.7867 21.5,32.5 Z"/></g>
<g><path style="opacity:1" fill="#2d6405" d="M 39.5,29.5 C 39.8333,29.5 40.1667,29.5 40.5,29.5C 41.0916,32.1272 41.4249,34.7938 41.5,37.5C 38.0677,41.3139 33.7343,42.9805 28.5,42.5C 28.1667,41.8333 27.8333,41.1667 27.5,40.5C 31.4264,40.7682 35.093,39.9349 38.5,38C 39.4438,35.2809 39.7771,32.4475 39.5,29.5 Z"/></g>
<g><path style="opacity:1" fill="#9f5b4c" d="M 16.5,26.5 C 18.1667,27.1667 19.8333,27.8333 21.5,28.5C 21.5,29.8333 21.5,31.1667 21.5,32.5C 20.7767,30.7867 19.4433,29.7867 17.5,29.5C 14.796,29.6696 13.1293,31.0029 12.5,33.5C 14.1041,37.7873 17.1041,40.1207 21.5,40.5C 21.5,38.1667 21.5,35.8333 21.5,33.5C 23.2632,36.0196 25.2632,38.3529 27.5,40.5C 27.8333,41.1667 28.1667,41.8333 28.5,42.5C 27.0351,43.7368 25.3684,44.7368 23.5,45.5C 18.043,46.3976 13.3764,45.0643 9.5,41.5C 7.74762,37.7727 7.08095,33.7727 7.5,29.5C 9.85684,29.6633 12.1902,29.4966 14.5,29C 15.056,28.6174 15.3893,28.1174 15.5,27.5C 16.1667,27.5 16.5,27.1667 16.5,26.5 Z"/></g>
<g><path style="opacity:1" fill="#684484" d="M 41.5,37.5 C 41.5,38.1667 41.5,38.8333 41.5,39.5C 38.5541,42.3131 35.2208,44.6465 31.5,46.5C 30.391,46.5569 29.391,46.8902 28.5,47.5C 26.4471,47.5979 24.7804,46.9313 23.5,45.5C 25.3684,44.7368 27.0351,43.7368 28.5,42.5C 33.7343,42.9805 38.0677,41.3139 41.5,37.5 Z"/></g>
<g><path style="opacity:1" fill="#41c40d" d="M 41.5,39.5 C 42.4511,40.9187 42.7845,42.5853 42.5,44.5C 41.4154,46.5869 39.7488,47.9202 37.5,48.5C 35.1432,48.6633 32.8098,48.4966 30.5,48C 31.056,47.6174 31.3893,47.1174 31.5,46.5C 35.2208,44.6465 38.5541,42.3131 41.5,39.5 Z"/></g>
<g><path style="opacity:1" fill="#2c7514" d="M 31.5,46.5 C 31.3893,47.1174 31.056,47.6174 30.5,48C 32.8098,48.4966 35.1432,48.6633 37.5,48.5C 36.7095,49.4013 35.7095,50.0679 34.5,50.5C 33.8333,50.5 33.1667,50.5 32.5,50.5C 30.368,50.4456 29.0347,49.4456 28.5,47.5C 29.391,46.8902 30.391,46.5569 31.5,46.5 Z"/></g>
<g><path style="opacity:1" fill="#4343c4" d="M 50.5,48.5 C 51.1098,49.391 51.4431,50.391 51.5,51.5C 50.6923,53.2202 49.6923,54.8869 48.5,56.5C 43.5153,57.2292 39.0153,56.2292 35,53.5C 34.5172,52.552 34.3505,51.552 34.5,50.5C 35.7095,50.0679 36.7095,49.4013 37.5,48.5C 39.7488,47.9202 41.4154,46.5869 42.5,44.5C 46.1452,43.4087 48.8119,44.742 50.5,48.5 Z"/></g>
<g><path style="opacity:1" fill="#3a3684" d="M 32.5,50.5 C 33.1667,50.5 33.8333,50.5 34.5,50.5C 34.3505,51.552 34.5172,52.552 35,53.5C 39.0153,56.2292 43.5153,57.2292 48.5,56.5C 48.1667,57.1667 47.8333,57.8333 47.5,58.5C 41.7088,59.5112 36.8755,57.8445 33,53.5C 32.5172,52.552 32.3505,51.552 32.5,50.5 Z"/></g>
<g><path style="opacity:1" fill="#958028" d="M 50.5,48.5 C 57.1916,48.6843 60.0249,52.0177 59,58.5C 55.2001,59.7295 51.3667,59.7295 47.5,58.5C 47.8333,57.8333 48.1667,57.1667 48.5,56.5C 49.6923,54.8869 50.6923,53.2202 51.5,51.5C 51.4431,50.391 51.1098,49.391 50.5,48.5 Z"/></g>
<g><path style="opacity:1" fill="#e7c30d" d="M 51.5,51.5 C 55.4267,51.2562 57.76,53.0896 58.5,57C 55.5,57.6667 52.5,57.6667 49.5,57C 51.1554,55.5557 51.822,53.7224 51.5,51.5 Z"/></g>
</svg>
