<?xml version="1.0" encoding="UTF-8"?>
<!DOCTYPE svg PUBLIC "-//W3C//DTD SVG 1.1//EN" "http://www.w3.org/Graphics/SVG/1.1/DTD/svg11.dtd">
<svg xmlns="http://www.w3.org/2000/svg" version="1.1" width="128px" height="128px" style="shape-rendering:geometricPrecision; text-rendering:geometricPrecision; image-rendering:optimizeQuality; fill-rule:evenodd; clip-rule:evenodd" xmlns:xlink="http://www.w3.org/1999/xlink">
<g><path style="opacity:1" fill="#fdfdfd" d="M -0.5,-0.5 C 42.1667,-0.5 84.8333,-0.5 127.5,-0.5C 127.5,42.1667 127.5,84.8333 127.5,127.5C 84.8333,127.5 42.1667,127.5 -0.5,127.5C -0.5,84.8333 -0.5,42.1667 -0.5,-0.5 Z"/></g>
<g><path style="opacity:1" fill="#3c4054" d="M 51.5,7.5 C 51.5,7.83333 51.5,8.16667 51.5,8.5C 47.7657,8.32274 44.0991,8.65608 40.5,9.5C 34.8819,8.15567 29.8819,9.489 25.5,13.5C 24.609,14.1098 23.609,14.4431 22.5,14.5C 24.7244,11.376 27.7244,9.20937 31.5,8C 38.1678,6.60648 44.8345,6.43982 51.5,7.5 Z"/></g>
<g><path style="opacity:1" fill="#054824" d="M 51.5,8.5 C 52.1667,8.5 52.8333,8.5 53.5,8.5C 56.0098,8.92668 58.3432,9.59334 60.5,10.5C 53.5,10.5 46.5,10.5 39.5,10.5C 39.5,9.83333 39.8333,9.5 40.5,9.5C 44.0991,8.65608 47.7657,8.32274 51.5,8.5 Z"/></g>
<g><path style="opacity:1" fill="#9c098f" d="M 53.5,8.5 C 61.5886,6.3895 69.2553,7.55617 76.5,12C 80.3431,15.6908 83.8431,19.5241 87,23.5C 87.1667,25 87.3333,26.5 87.5,28C 87.4313,29.9855 86.7647,31.4855 85.5,32.5C 84.5,32.1667 83.8333,31.5 83.5,30.5C 84.6431,27.9321 84.4764,25.2654 83,22.5C 79.3967,16.8961 74.5634,12.7294 68.5,10C 66.6131,9.22039 64.9464,9.38705 63.5,10.5C 62.5,10.5 61.5,10.5 60.5,10.5C 58.3432,9.59334 56.0098,8.92668 53.5,8.5 Z"/></g>
<g><path style="opacity:1" fill="#67135f" d="M 89.5,28.5 C 88.8333,30.1667 88.1667,31.8333 87.5,33.5C 86.5084,33.6716 85.8417,33.3382 85.5,32.5C 86.7647,31.4855 87.4313,29.9855 87.5,28C 87.3333,26.5 87.1667,25 87,23.5C 83.8431,19.5241 80.3431,15.6908 76.5,12C 69.2553,7.55617 61.5886,6.3895 53.5,8.5C 52.8333,8.5 52.1667,8.5 51.5,8.5C 51.5,8.16667 51.5,7.83333 51.5,7.5C 66.3718,2.40182 78.2051,6.40182 87,19.5C 88.9076,22.2065 89.741,25.2065 89.5,28.5 Z"/></g>
<g><path style="opacity:1" fill="#4e6ca6" d="M 40.5,9.5 C 39.8333,9.5 39.5,9.83333 39.5,10.5C 37.0587,11.5566 34.7254,12.89 32.5,14.5C 30.2534,13.6258 27.9201,13.2924 25.5,13.5C 29.8819,9.489 34.8819,8.15567 40.5,9.5 Z"/></g>
<g><path style="opacity:1" fill="#058540" d="M 39.5,10.5 C 46.5,10.5 53.5,10.5 60.5,10.5C 62.0188,11.4098 63.6854,12.2432 65.5,13C 66.3366,14.0113 66.67,15.1779 66.5,16.5C 60.3535,14.2589 54.0202,12.9256 47.5,12.5C 43.2711,11.9672 39.6044,12.9672 36.5,15.5C 37.075,13.5887 38.075,11.922 39.5,10.5 Z"/></g>
<g><path style="opacity:1" fill="#24562f" d="M 39.5,10.5 C 38.075,11.922 37.075,13.5887 36.5,15.5C 35.6364,16.6883 34.6364,17.8549 33.5,19C 35.1341,19.4935 36.8008,19.6602 38.5,19.5C 36.6264,20.2852 34.6264,20.9518 32.5,21.5C 32.5,19.5 32.5,17.5 32.5,15.5C 23.7712,16.5162 16.1046,19.8496 9.5,25.5C 12.3816,20.211 16.7149,16.5443 22.5,14.5C 23.609,14.4431 24.609,14.1098 25.5,13.5C 27.9201,13.2924 30.2534,13.6258 32.5,14.5C 34.7254,12.89 37.0587,11.5566 39.5,10.5 Z"/></g>
<g><path style="opacity:1" fill="#095b2d" d="M 60.5,10.5 C 61.5,10.5 62.5,10.5 63.5,10.5C 70.4597,13.1283 75.4597,17.7949 78.5,24.5C 78.7947,26.7354 78.4614,28.7354 77.5,30.5C 77.6621,28.4727 77.4955,26.4727 77,24.5C 74.293,21.9546 71.4597,19.6213 68.5,17.5C 67.5084,17.6716 66.8417,17.3382 66.5,16.5C 66.67,15.1779 66.3366,14.0113 65.5,13C 63.6854,12.2432 62.0188,11.4098 60.5,10.5 Z"/></g>
<g><path style="opacity:1" fill="#10ef76" d="M 63.5,27.5 C 61.9382,27.2671 60.6049,26.6005 59.5,25.5C 58.4206,23.457 56.754,22.1237 54.5,21.5C 53.9688,19.3763 52.6355,17.8763 50.5,17C 53.9526,16.5225 57.2859,17.0225 60.5,18.5C 63.1954,21.5256 65.8621,24.5256 68.5,27.5C 66.9052,28.4339 65.2385,28.4339 63.5,27.5 Z"/></g>
<g><path style="opacity:1" fill="#0bc760" d="M 66.5,16.5 C 66.8417,17.3382 67.5084,17.6716 68.5,17.5C 68.0217,20.2776 69.0217,22.2776 71.5,23.5C 72.6517,26.1062 72.8184,28.7728 72,31.5C 71.1841,32.8228 70.0174,33.4894 68.5,33.5C 68.5,32.8333 68.1667,32.5 67.5,32.5C 66.1667,30.8333 64.8333,29.1667 63.5,27.5C 65.2385,28.4339 66.9052,28.4339 68.5,27.5C 65.8621,24.5256 63.1954,21.5256 60.5,18.5C 57.2859,17.0225 53.9526,16.5225 50.5,17C 52.6355,17.8763 53.9688,19.3763 54.5,21.5C 49.4807,18.6321 44.1474,17.9654 38.5,19.5C 36.8008,19.6602 35.1341,19.4935 33.5,19C 34.6364,17.8549 35.6364,16.6883 36.5,15.5C 39.6044,12.9672 43.2711,11.9672 47.5,12.5C 54.0202,12.9256 60.3535,14.2589 66.5,16.5 Z"/></g>
<g><path style="opacity:1" fill="#cd0dbd" d="M 63.5,10.5 C 64.9464,9.38705 66.6131,9.22039 68.5,10C 74.5634,12.7294 79.3967,16.8961 83,22.5C 84.4764,25.2654 84.6431,27.9321 83.5,30.5C 82.2921,29.7659 80.9587,29.4326 79.5,29.5C 79.7845,27.5853 79.4511,25.9187 78.5,24.5C 75.4597,17.7949 70.4597,13.1283 63.5,10.5 Z"/></g>
<g><path style="opacity:1" fill="#61b85b" d="M 31.5,22.5 C 31.6633,24.8568 31.4966,27.1902 31,29.5C 30.2917,28.6195 29.4584,27.9528 28.5,27.5C 26.0521,26.5269 23.3854,26.1936 20.5,26.5C 22.9479,25.5269 25.6146,25.1936 28.5,25.5C 28.5,23.8333 28.5,22.1667 28.5,20.5C 26.5,20.5 24.5,20.5 22.5,20.5C 22.6107,19.8826 22.944,19.3826 23.5,19C 27.5058,17.5793 30.1724,18.746 31.5,22.5 Z"/></g>
<g><path style="opacity:1" fill="#7eef73" d="M 22.5,20.5 C 24.5,20.5 26.5,20.5 28.5,20.5C 28.5,22.1667 28.5,23.8333 28.5,25.5C 25.6146,25.1936 22.9479,25.5269 20.5,26.5C 19.8333,26.5 19.1667,26.5 18.5,26.5C 17.448,26.6495 16.448,26.4828 15.5,26C 18.3062,24.6368 20.6395,22.8034 22.5,20.5 Z"/></g>
<g><path style="opacity:1" fill="#be539e" d="M 59.5,25.5 C 60.6049,26.6005 61.9382,27.2671 63.5,27.5C 64.8333,29.1667 66.1667,30.8333 67.5,32.5C 68.3432,39.6362 65.3432,43.9695 58.5,45.5C 60.7957,43.5994 62.629,41.2661 64,38.5C 64.6347,36.3646 64.3014,34.3646 63,32.5C 58.7932,30.9803 54.9599,28.8136 51.5,26C 43.4372,24.0849 38.4372,27.0849 36.5,35C 36.7133,41.1187 37.7133,46.952 39.5,52.5C 38.5,52.5 37.5,52.5 36.5,52.5C 35.9546,46.6041 34.9546,40.7707 33.5,35C 33.8371,31.4771 34.3371,27.9771 35,24.5C 38.3842,22.57 42.0508,21.57 46,21.5C 50.787,21.9297 55.287,23.263 59.5,25.5 Z"/></g>
<g><path style="opacity:1" fill="#4b8d46" d="M 32.5,21.5 C 32.5,22.1667 32.1667,22.5 31.5,22.5C 30.1724,18.746 27.5058,17.5793 23.5,19C 22.944,19.3826 22.6107,19.8826 22.5,20.5C 20.6395,22.8034 18.3062,24.6368 15.5,26C 16.448,26.4828 17.448,26.6495 18.5,26.5C 18.5,27.1667 18.1667,27.5 17.5,27.5C 14.8996,28.9188 12.3996,30.5854 10,32.5C 8.39518,35.1915 6.89518,37.8582 5.5,40.5C 5.13948,34.9346 6.47282,29.9346 9.5,25.5C 16.1046,19.8496 23.7712,16.5162 32.5,15.5C 32.5,17.5 32.5,19.5 32.5,21.5 Z"/></g>
<g><path style="opacity:1" fill="#7e3a6e" d="M 54.5,21.5 C 56.754,22.1237 58.4206,23.457 59.5,25.5C 55.287,23.263 50.787,21.9297 46,21.5C 42.0508,21.57 38.3842,22.57 35,24.5C 34.3371,27.9771 33.8371,31.4771 33.5,35C 34.9546,40.7707 35.9546,46.6041 36.5,52.5C 37.5,52.5 38.5,52.5 39.5,52.5C 46.7712,53.183 53.1045,50.8496 58.5,45.5C 65.3432,43.9695 68.3432,39.6362 67.5,32.5C 68.1667,32.5 68.5,32.8333 68.5,33.5C 68.9887,34.9952 69.6554,36.3285 70.5,37.5C 70.5,37.8333 70.5,38.1667 70.5,38.5C 69.8826,38.6107 69.3826,38.944 69,39.5C 68.5045,41.4727 68.3379,43.4727 68.5,45.5C 66.4727,45.3379 64.4727,45.5045 62.5,46C 56.9483,49.725 51.2816,53.225 45.5,56.5C 42.5176,58.0775 39.8509,57.7442 37.5,55.5C 35.7553,51.6725 34.422,51.6725 33.5,55.5C 33.763,45.7388 32.0963,36.4054 28.5,27.5C 29.4584,27.9528 30.2917,28.6195 31,29.5C 31.4966,27.1902 31.6633,24.8568 31.5,22.5C 32.1667,22.5 32.5,22.1667 32.5,21.5C 34.6264,20.9518 36.6264,20.2852 38.5,19.5C 44.1474,17.9654 49.4807,18.6321 54.5,21.5 Z"/></g>
<g><path style="opacity:1" fill="#078f45" d="M 68.5,17.5 C 71.4597,19.6213 74.293,21.9546 77,24.5C 77.4955,26.4727 77.6621,28.4727 77.5,30.5C 76.8333,31.5 76.1667,32.5 75.5,33.5C 73.2512,34.0798 71.5846,35.4131 70.5,37.5C 69.6554,36.3285 68.9887,34.9952 68.5,33.5C 70.0174,33.4894 71.1841,32.8228 72,31.5C 72.8184,28.7728 72.6517,26.1062 71.5,23.5C 69.0217,22.2776 68.0217,20.2776 68.5,17.5 Z"/></g>
<g><path style="opacity:1" fill="#512260" d="M 78.5,24.5 C 79.4511,25.9187 79.7845,27.5853 79.5,29.5C 80.9587,29.4326 82.2921,29.7659 83.5,30.5C 83.8333,31.5 84.5,32.1667 85.5,32.5C 85.8417,33.3382 86.5084,33.6716 87.5,33.5C 87.3284,34.4916 87.6618,35.1583 88.5,35.5C 89.3795,38.2622 90.5462,40.9289 92,43.5C 92.6781,47.2211 92.5114,50.8878 91.5,54.5C 90.8333,54.8333 90.1667,55.1667 89.5,55.5C 91.477,44.1489 86.8104,36.8156 75.5,33.5C 76.1667,32.5 76.8333,31.5 77.5,30.5C 78.4614,28.7354 78.7947,26.7354 78.5,24.5 Z"/></g>
<g><path style="opacity:1" fill="#b648d9" d="M 79.5,57.5 C 77.5628,53.5649 74.8961,50.2316 71.5,47.5C 70.9935,43.9929 71.6602,40.8263 73.5,38C 76.7894,37.2536 79.2894,38.4203 81,41.5C 83.7015,46.4522 84.8682,51.7855 84.5,57.5C 82.8333,57.5 81.1667,57.5 79.5,57.5 Z"/></g>
<g><path style="opacity:1" fill="#295d35" d="M 89.5,28.5 C 96.4753,34.9332 98.9753,42.9332 97,52.5C 96.3299,55.1739 95.1632,57.5073 93.5,59.5C 93.5674,58.0413 93.2341,56.7079 92.5,55.5C 93.7899,54.9423 94.6232,53.9423 95,52.5C 95.6667,48.1667 95.6667,43.8333 95,39.5C 94.0701,37.4476 92.5701,35.9476 90.5,35C 89.5632,34.3083 88.8966,34.475 88.5,35.5C 87.6618,35.1583 87.3284,34.4916 87.5,33.5C 88.1667,31.8333 88.8333,30.1667 89.5,28.5 Z"/></g>
<g><path style="opacity:1" fill="#6e2b84" d="M 75.5,33.5 C 86.8104,36.8156 91.477,44.1489 89.5,55.5C 89.1667,55.5 88.8333,55.5 88.5,55.5C 88.4558,50.6532 87.6225,45.9866 86,41.5C 81.6514,35.0281 76.4848,34.0281 70.5,38.5C 70.5,38.1667 70.5,37.8333 70.5,37.5C 71.5846,35.4131 73.2512,34.0798 75.5,33.5 Z"/></g>
<g><path style="opacity:1" fill="#33964c" d="M 92.5,55.5 C 92.5,54.8333 92.1667,54.5 91.5,54.5C 92.5114,50.8878 92.6781,47.2211 92,43.5C 90.5462,40.9289 89.3795,38.2622 88.5,35.5C 88.8966,34.475 89.5632,34.3083 90.5,35C 92.5701,35.9476 94.0701,37.4476 95,39.5C 95.6667,43.8333 95.6667,48.1667 95,52.5C 94.6232,53.9423 93.7899,54.9423 92.5,55.5 Z"/></g>
<g><path style="opacity:1" fill="#232b62" d="M 17.5,27.5 C 14.8347,30.3347 12.3347,33.3347 10,36.5C 8.33479,44.9606 10.5015,52.1273 16.5,58C 18.8098,58.4966 21.1432,58.6633 23.5,58.5C 21.3926,59.4682 19.0593,59.8016 16.5,59.5C 15.5,59.5 14.5,59.5 13.5,59.5C 12.205,58.5116 10.8717,57.5116 9.5,56.5C 6.3027,51.7112 4.96937,46.3778 5.5,40.5C 6.89518,37.8582 8.39518,35.1915 10,32.5C 12.3996,30.5854 14.8996,28.9188 17.5,27.5 Z"/></g>
<g><path style="opacity:1" fill="#3c4bb9" d="M 28.5,27.5 C 32.0963,36.4054 33.763,45.7388 33.5,55.5C 32.8333,55.8333 32.1667,56.1667 31.5,56.5C 31.1667,56.5 30.8333,56.5 30.5,56.5C 14.6124,56.0778 9.77902,48.4111 16,33.5C 17.973,31.7721 19.8063,29.9387 21.5,28C 23.8098,27.5034 26.1432,27.3367 28.5,27.5 Z"/></g>
<g><path style="opacity:1" fill="#4e63ee" d="M 21.5,30.5 C 25.4896,29.6155 28.3229,30.9489 30,34.5C 30.2058,40.2724 31.0392,45.939 32.5,51.5C 32.2908,52.9945 31.6241,54.1612 30.5,55C 28.5,55.6667 26.5,55.6667 24.5,55C 15.0591,47.8654 14.0591,39.6987 21.5,30.5 Z"/></g>
<g><path style="opacity:1" fill="#da5fb6" d="M 58.5,45.5 C 53.1045,50.8496 46.7712,53.183 39.5,52.5C 37.7133,46.952 36.7133,41.1187 36.5,35C 38.4372,27.0849 43.4372,24.0849 51.5,26C 54.9599,28.8136 58.7932,30.9803 63,32.5C 64.3014,34.3646 64.6347,36.3646 64,38.5C 62.629,41.2661 60.7957,43.5994 58.5,45.5 Z"/></g>
<g><path style="opacity:1" fill="#f871d3" d="M 46.5,29.5 C 55.2278,29.0558 58.7278,33.0558 57,41.5C 53.1806,46.0446 48.3472,49.0446 42.5,50.5C 40.9996,50.5472 39.9996,49.8805 39.5,48.5C 40.2826,43.5527 40.7826,38.5527 41,33.5C 42.8121,32.0229 44.6455,30.6896 46.5,29.5 Z"/></g>
<g><path style="opacity:1" fill="#313f9a" d="M 18.5,26.5 C 19.1667,26.5 19.8333,26.5 20.5,26.5C 23.3854,26.1936 26.0521,26.5269 28.5,27.5C 26.1432,27.3367 23.8098,27.5034 21.5,28C 19.8063,29.9387 17.973,31.7721 16,33.5C 9.77902,48.4111 14.6124,56.0778 30.5,56.5C 30.3893,57.1174 30.056,57.6174 29.5,58C 27.5273,58.4955 25.5273,58.6621 23.5,58.5C 21.1432,58.6633 18.8098,58.4966 16.5,58C 10.5015,52.1273 8.33479,44.9606 10,36.5C 12.3347,33.3347 14.8347,30.3347 17.5,27.5C 18.1667,27.5 18.5,27.1667 18.5,26.5 Z"/></g>
<g><path style="opacity:1" fill="#9039ad" d="M 88.5,55.5 C 87.8333,56.5 87.1667,57.5 86.5,58.5C 84.8984,60.0739 82.8984,60.7406 80.5,60.5C 80.6716,59.5084 80.3382,58.8417 79.5,58.5C 79.5,58.1667 79.5,57.8333 79.5,57.5C 81.1667,57.5 82.8333,57.5 84.5,57.5C 84.8682,51.7855 83.7015,46.4522 81,41.5C 79.2894,38.4203 76.7894,37.2536 73.5,38C 71.6602,40.8263 70.9935,43.9929 71.5,47.5C 70.5,46.8333 69.5,46.1667 68.5,45.5C 68.3379,43.4727 68.5045,41.4727 69,39.5C 69.3826,38.944 69.8826,38.6107 70.5,38.5C 76.4848,34.0281 81.6514,35.0281 86,41.5C 87.6225,45.9866 88.4558,50.6532 88.5,55.5 Z"/></g>
<g><path style="opacity:1" fill="#94954d" d="M 37.5,55.5 C 35.68,57.4611 33.68,57.7944 31.5,56.5C 32.1667,56.1667 32.8333,55.8333 33.5,55.5C 34.422,51.6725 35.7553,51.6725 37.5,55.5 Z"/></g>
<g><path style="opacity:1" fill="#b83e6c" d="M 83.5,69.5 C 83.2041,67.597 82.5375,65.9303 81.5,64.5C 81.5674,63.0413 81.2341,61.7079 80.5,60.5C 82.8984,60.7406 84.8984,60.0739 86.5,58.5C 88.0443,58.2969 89.3777,57.6302 90.5,56.5C 92.3963,63.0546 90.5629,68.388 85,72.5C 84.7679,71.2625 84.2679,70.2625 83.5,69.5 Z"/></g>
<g><path style="opacity:1" fill="#3f675e" d="M 9.5,56.5 C 10.8717,57.5116 12.205,58.5116 13.5,59.5C 12.5041,59.4142 11.6708,59.7476 11,60.5C 10.3333,63.8333 10.3333,67.1667 11,70.5C 11.8893,73.095 13.3893,75.095 15.5,76.5C 17.7563,80.0974 20.4229,83.4307 23.5,86.5C 14.3575,81.4165 9.02419,73.5832 7.5,63C 7.48241,60.5897 8.14908,58.423 9.5,56.5 Z"/></g>
<g><path style="opacity:1" fill="#542736" d="M 91.5,54.5 C 92.1667,54.5 92.5,54.8333 92.5,55.5C 93.2341,56.7079 93.5674,58.0413 93.5,59.5C 93.0413,66.0836 90.208,71.4169 85,75.5C 84.51,76.7932 84.3433,78.1266 84.5,79.5C 84.1667,79.5 83.8333,79.5 83.5,79.5C 83.7148,77.8212 83.0481,76.8212 81.5,76.5C 82.4552,74.2543 83.1218,71.921 83.5,69.5C 84.2679,70.2625 84.7679,71.2625 85,72.5C 90.5629,68.388 92.3963,63.0546 90.5,56.5C 89.3777,57.6302 88.0443,58.2969 86.5,58.5C 87.1667,57.5 87.8333,56.5 88.5,55.5C 88.8333,55.5 89.1667,55.5 89.5,55.5C 90.1667,55.1667 90.8333,54.8333 91.5,54.5 Z"/></g>
<g><path style="opacity:1" fill="#59ae9b" d="M 13.5,59.5 C 14.5,59.5 15.5,59.5 16.5,59.5C 14.1991,64.9905 13.8658,70.6572 15.5,76.5C 13.3893,75.095 11.8893,73.095 11,70.5C 10.3333,67.1667 10.3333,63.8333 11,60.5C 11.6708,59.7476 12.5041,59.4142 13.5,59.5 Z"/></g>
<g><path style="opacity:1" fill="#e4806c" d="M 37.5,59.5 C 38.6935,60.2719 39.6935,61.2719 40.5,62.5C 41.8841,68.1287 42.7174,73.7954 43,79.5C 39.5915,80.6219 36.0915,80.7886 32.5,80C 29.3089,74.9892 25.6423,70.4892 21.5,66.5C 21.5904,64.5749 22.5904,63.4083 24.5,63C 28.7155,61.3158 33.0488,60.1491 37.5,59.5 Z"/></g>
<g><path style="opacity:1" fill="#6e3f35" d="M 37.5,55.5 C 39.8509,57.7442 42.5176,58.0775 45.5,56.5C 43.1496,58.2133 42.1496,60.5466 42.5,63.5C 41.8333,63.1667 41.1667,62.8333 40.5,62.5C 39.6935,61.2719 38.6935,60.2719 37.5,59.5C 30.8609,58.8755 24.1942,59.7089 17.5,62C 16.4258,62.7387 15.7591,63.7387 15.5,65C 19.6009,81.727 30.2676,89.0604 47.5,87C 50.9414,85.6816 52.2747,83.1816 51.5,79.5C 53.5248,81.1964 55.5248,82.863 57.5,84.5C 56.2536,87.643 53.9203,89.643 50.5,90.5C 48.9731,90.427 47.9731,91.0937 47.5,92.5C 42.5824,91.7186 37.5824,91.2186 32.5,91C 29.1284,89.9811 26.1284,88.4811 23.5,86.5C 20.4229,83.4307 17.7563,80.0974 15.5,76.5C 13.8658,70.6572 14.1991,64.9905 16.5,59.5C 19.0593,59.8016 21.3926,59.4682 23.5,58.5C 25.5273,58.6621 27.5273,58.4955 29.5,58C 30.056,57.6174 30.3893,57.1174 30.5,56.5C 30.8333,56.5 31.1667,56.5 31.5,56.5C 33.68,57.7944 35.68,57.4611 37.5,55.5 Z"/></g>
<g><path style="opacity:1" fill="#47a306" d="M 68.5,45.5 C 69.5,46.1667 70.5,46.8333 71.5,47.5C 74.8961,50.2316 77.5628,53.5649 79.5,57.5C 79.5,57.8333 79.5,58.1667 79.5,58.5C 79.666,63.8437 79.4994,69.1771 79,74.5C 70.2401,80.6583 61.0735,81.1583 51.5,76C 50.2853,73.6246 48.6186,71.7912 46.5,70.5C 44.9138,68.3295 43.5804,65.9962 42.5,63.5C 42.1496,60.5466 43.1496,58.2133 45.5,56.5C 51.2816,53.225 56.9483,49.725 62.5,46C 64.4727,45.5045 66.4727,45.3379 68.5,45.5 Z"/></g>
<g><path style="opacity:1" fill="#5dd705" d="M 61.5,48.5 C 70.6047,48.0918 76.1047,52.4252 78,61.5C 78.9377,64.8805 78.271,67.8805 76,70.5C 70.0586,78.0888 62.8919,79.4221 54.5,74.5C 51.5,70.5 48.5,66.5 45.5,62.5C 45.8757,60.6171 46.8757,59.1171 48.5,58C 53.5553,55.7718 57.8887,52.6052 61.5,48.5 Z"/></g>
<g><path style="opacity:1" fill="#6af10a" d="M 60.5,51.5 C 62.5273,51.3379 64.5273,51.5045 66.5,52C 68.0406,54.9156 69.7073,57.7489 71.5,60.5C 70.2912,65.272 67.4578,68.6053 63,70.5C 58.0644,69.0479 53.2311,67.3812 48.5,65.5C 48.3433,64.1266 48.51,62.7932 49,61.5C 52.4097,57.5842 56.243,54.2508 60.5,51.5 Z"/></g>
<g><path style="opacity:1" fill="#377f04" d="M 79.5,58.5 C 80.3382,58.8417 80.6716,59.5084 80.5,60.5C 81.2341,61.7079 81.5674,63.0413 81.5,64.5C 80.7811,78.8741 73.1145,85.5407 58.5,84.5C 58.1667,84.5 57.8333,84.5 57.5,84.5C 55.5248,82.863 53.5248,81.1964 51.5,79.5C 49.5797,76.6612 47.9131,73.6612 46.5,70.5C 48.6186,71.7912 50.2853,73.6246 51.5,76C 61.0735,81.1583 70.2401,80.6583 79,74.5C 79.4994,69.1771 79.666,63.8437 79.5,58.5 Z"/></g>
<g><path style="opacity:1" fill="#b46454" d="M 37.5,59.5 C 33.0488,60.1491 28.7155,61.3158 24.5,63C 22.5904,63.4083 21.5904,64.5749 21.5,66.5C 25.6423,70.4892 29.3089,74.9892 32.5,80C 36.0915,80.7886 39.5915,80.6219 43,79.5C 42.7174,73.7954 41.8841,68.1287 40.5,62.5C 41.1667,62.8333 41.8333,63.1667 42.5,63.5C 43.5804,65.9962 44.9138,68.3295 46.5,70.5C 47.9131,73.6612 49.5797,76.6612 51.5,79.5C 52.2747,83.1816 50.9414,85.6816 47.5,87C 30.2676,89.0604 19.6009,81.727 15.5,65C 15.7591,63.7387 16.4258,62.7387 17.5,62C 24.1942,59.7089 30.8609,58.8755 37.5,59.5 Z"/></g>
<g><path style="opacity:1" fill="#573a70" d="M 81.5,76.5 C 83.0481,76.8212 83.7148,77.8212 83.5,79.5C 83.4431,80.609 83.1098,81.609 82.5,82.5C 79.4604,83.6803 76.7937,85.347 74.5,87.5C 72.9731,87.427 71.9731,88.0937 71.5,89.5C 67.9785,91.4264 64.3118,93.0931 60.5,94.5C 59.2921,95.2341 57.9587,95.5674 56.5,95.5C 52.9966,95.8711 49.9966,94.8711 47.5,92.5C 47.9731,91.0937 48.9731,90.427 50.5,90.5C 50.9175,91.2216 51.5842,91.7216 52.5,92C 60.8064,92.7562 68.1397,90.4228 74.5,85C 73.9056,84.5357 73.2389,84.369 72.5,84.5C 76.0967,82.5737 79.0967,79.907 81.5,76.5 Z"/></g>
<g><path style="opacity:1" fill="#25480d" d="M 81.5,64.5 C 82.5375,65.9303 83.2041,67.597 83.5,69.5C 83.1218,71.921 82.4552,74.2543 81.5,76.5C 79.0967,79.907 76.0967,82.5737 72.5,84.5C 69.5123,85.1611 66.5123,85.8278 63.5,86.5C 61.4434,86.5643 59.7767,85.8976 58.5,84.5C 73.1145,85.5407 80.7811,78.8741 81.5,64.5 Z"/></g>
<g><path style="opacity:1" fill="#282663" d="M 86.5,86.5 C 88.1992,86.3398 89.8659,86.5065 91.5,87C 95.6947,90.0298 99.3613,93.5298 102.5,97.5C 103.038,99.1172 103.371,100.784 103.5,102.5C 102.833,103.5 102.167,104.5 101.5,105.5C 102.809,100.32 100.976,96.987 96,95.5C 95.51,94.2068 95.3433,92.8734 95.5,91.5C 93.6412,91.5391 92.3079,90.7058 91.5,89C 89.8659,88.5065 88.1992,88.3398 86.5,88.5C 86.5,87.8333 86.5,87.1667 86.5,86.5 Z"/></g>
<g><path style="opacity:1" fill="#8352ac" d="M 57.5,84.5 C 57.8333,84.5 58.1667,84.5 58.5,84.5C 59.7767,85.8976 61.4434,86.5643 63.5,86.5C 66.5123,85.8278 69.5123,85.1611 72.5,84.5C 73.2389,84.369 73.9056,84.5357 74.5,85C 68.1397,90.4228 60.8064,92.7562 52.5,92C 51.5842,91.7216 50.9175,91.2216 50.5,90.5C 53.9203,89.643 56.2536,87.643 57.5,84.5 Z"/></g>
<g><path style="opacity:1" fill="#49df0c" d="M 71.5,89.5 C 71.9731,88.0937 72.9731,87.427 74.5,87.5C 76.4352,86.8505 78.4352,86.5172 80.5,86.5C 80.528,88.5824 79.8613,90.4157 78.5,92C 75.4388,94.0347 72.1055,95.2014 68.5,95.5C 68.615,93.0532 69.615,91.0532 71.5,89.5 Z"/></g>
<g><path style="opacity:1" fill="#276e10" d="M 83.5,79.5 C 83.8333,79.5 84.1667,79.5 84.5,79.5C 85.9395,81.588 86.6061,83.9214 86.5,86.5C 86.5,87.1667 86.5,87.8333 86.5,88.5C 85.2503,92.408 82.917,95.408 79.5,97.5C 75.8733,98.3208 72.54,99.6541 69.5,101.5C 68.1667,101.5 66.8333,101.5 65.5,101.5C 64.1266,101.657 62.7932,101.49 61.5,101C 59.2342,99.5736 57.5676,97.7402 56.5,95.5C 57.9587,95.5674 59.2921,95.2341 60.5,94.5C 61.4486,97.9404 63.7819,99.2738 67.5,98.5C 71.4033,98.3825 75.07,97.3825 78.5,95.5C 78.2907,94.914 77.9574,94.414 77.5,94C 79.7271,93.879 81.5604,93.0456 83,91.5C 83.8045,88.3035 83.6378,85.3035 82.5,82.5C 83.1098,81.609 83.4431,80.609 83.5,79.5 Z"/></g>
<g><path style="opacity:1" fill="#3bb60a" d="M 82.5,82.5 C 83.6378,85.3035 83.8045,88.3035 83,91.5C 81.5604,93.0456 79.7271,93.879 77.5,94C 77.9574,94.414 78.2907,94.914 78.5,95.5C 75.07,97.3825 71.4033,98.3825 67.5,98.5C 63.7819,99.2738 61.4486,97.9404 60.5,94.5C 64.3118,93.0931 67.9785,91.4264 71.5,89.5C 69.615,91.0532 68.615,93.0532 68.5,95.5C 72.1055,95.2014 75.4388,94.0347 78.5,92C 79.8613,90.4157 80.528,88.5824 80.5,86.5C 78.4352,86.5172 76.4352,86.8505 74.5,87.5C 76.7937,85.347 79.4604,83.6803 82.5,82.5 Z"/></g>
<g><path style="opacity:1" fill="#4444cc" d="M 71.5,107.5 C 70.5,107.167 69.8333,106.5 69.5,105.5C 68.3143,104.295 68.3143,102.961 69.5,101.5C 72.54,99.6541 75.8733,98.3208 79.5,97.5C 83.8074,97.2634 86.1408,94.9301 86.5,90.5C 87.552,90.3505 88.552,90.5172 89.5,91C 90.1029,92.8254 90.7696,94.6587 91.5,96.5C 96.2554,97.4159 98.5887,100.249 98.5,105C 98.3773,107.746 97.3773,110.079 95.5,112C 90.9342,113.309 86.2675,113.809 81.5,113.5C 81.67,112.178 81.3366,111.011 80.5,110C 77.4535,109.261 74.4535,108.428 71.5,107.5 Z"/></g>
<g><path style="opacity:1" fill="#7a6709" d="M 118.5,111.5 C 116.037,109.539 113.703,107.372 111.5,105C 107.042,102.274 104.375,103.441 103.5,108.5C 102.061,110.36 100.395,112.027 98.5,113.5C 100.043,111.072 101.043,108.406 101.5,105.5C 102.167,104.5 102.833,103.5 103.5,102.5C 104.404,101.791 104.737,100.791 104.5,99.5C 105.873,99.3433 107.207,99.51 108.5,100C 112.439,103.429 115.772,107.263 118.5,111.5 Z"/></g>
<g><path style="opacity:1" fill="#493f13" d="M 102.5,97.5 C 107.013,97.588 111.013,99.088 114.5,102C 117.653,104.805 119.319,108.305 119.5,112.5C 118.833,112.5 118.5,112.167 118.5,111.5C 115.772,107.263 112.439,103.429 108.5,100C 107.207,99.51 105.873,99.3433 104.5,99.5C 104.737,100.791 104.404,101.791 103.5,102.5C 103.371,100.784 103.038,99.1172 102.5,97.5 Z"/></g>
<g><path style="opacity:1" fill="#3636a3" d="M 86.5,88.5 C 88.1992,88.3398 89.8659,88.5065 91.5,89C 92.3079,90.7058 93.6412,91.5391 95.5,91.5C 95.3433,92.8734 95.51,94.2068 96,95.5C 100.976,96.987 102.809,100.32 101.5,105.5C 101.043,108.406 100.043,111.072 98.5,113.5C 97.8333,113.5 97.5,113.833 97.5,114.5C 96.8333,114.833 96.1667,115.167 95.5,115.5C 90.8215,115.666 86.1548,115.499 81.5,115C 78.0506,112.521 74.7173,110.021 71.5,107.5C 74.4535,108.428 77.4535,109.261 80.5,110C 81.3366,111.011 81.67,112.178 81.5,113.5C 86.2675,113.809 90.9342,113.309 95.5,112C 97.3773,110.079 98.3773,107.746 98.5,105C 98.5887,100.249 96.2554,97.4159 91.5,96.5C 90.7696,94.6587 90.1029,92.8254 89.5,91C 88.552,90.5172 87.552,90.3505 86.5,90.5C 86.1408,94.9301 83.8074,97.2634 79.5,97.5C 82.917,95.408 85.2503,92.408 86.5,88.5 Z"/></g>
<g><path style="opacity:1" fill="#5252ef" d="M 69.5,105.5 C 73.9449,102.72 78.7782,100.386 84,98.5C 89.6379,98.219 93.1379,100.719 94.5,106C 94.1865,109.311 92.3532,110.811 89,110.5C 82.9853,107.296 76.4853,105.629 69.5,105.5 Z"/></g>
<g><path style="opacity:1" fill="#2d2b6c" d="M 65.5,101.5 C 66.8333,101.5 68.1667,101.5 69.5,101.5C 68.3143,102.961 68.3143,104.295 69.5,105.5C 69.8333,106.5 70.5,107.167 71.5,107.5C 74.7173,110.021 78.0506,112.521 81.5,115C 86.1548,115.499 90.8215,115.666 95.5,115.5C 95.5,115.833 95.5,116.167 95.5,116.5C 84.2841,119.04 74.7841,116.04 67,107.5C 65.872,105.655 65.372,103.655 65.5,101.5 Z"/></g>
<g><path style="opacity:1" fill="#bea009" d="M 118.5,111.5 C 118.5,112.167 118.833,112.5 119.5,112.5C 119.88,114.698 119.213,116.365 117.5,117.5C 111.824,117.666 106.157,117.499 100.5,117C 98.8807,116.764 97.8807,115.931 97.5,114.5C 97.5,113.833 97.8333,113.5 98.5,113.5C 100.395,112.027 102.061,110.36 103.5,108.5C 104.375,103.441 107.042,102.274 111.5,105C 113.703,107.372 116.037,109.539 118.5,111.5 Z"/></g>
<g><path style="opacity:1" fill="#f0cb0e" d="M 103.5,108.5 C 104.627,107.878 105.627,107.045 106.5,106C 107.833,105.333 109.167,105.333 110.5,106C 113.888,108.531 116.221,111.698 117.5,115.5C 111.794,115.829 106.128,115.495 100.5,114.5C 102.038,112.757 103.038,110.757 103.5,108.5 Z"/></g>
<g><path style="opacity:1" fill="#716016" d="M 97.5,114.5 C 97.8807,115.931 98.8807,116.764 100.5,117C 106.157,117.499 111.824,117.666 117.5,117.5C 111.347,118.653 105.014,118.82 98.5,118C 97.4734,117.487 96.4734,116.987 95.5,116.5C 95.5,116.167 95.5,115.833 95.5,115.5C 96.1667,115.167 96.8333,114.833 97.5,114.5 Z"/></g>
</svg>
