<?xml version="1.0" encoding="UTF-8" standalone="no"?>
<!-- Created with Inkscape (http://www.inkscape.org/) -->

<svg
   xmlns:dc="http://purl.org/dc/elements/1.1/"
   xmlns:cc="http://creativecommons.org/ns#"
   xmlns:rdf="http://www.w3.org/1999/02/22-rdf-syntax-ns#"
   xmlns:svg="http://www.w3.org/2000/svg"
   xmlns="http://www.w3.org/2000/svg"
   xmlns:sodipodi="http://sodipodi.sourceforge.net/DTD/sodipodi-0.dtd"
   xmlns:inkscape="http://www.inkscape.org/namespaces/inkscape"
   width="714.26471"
   height="917.2088"
   id="svg2"
   version="1.1"
   inkscape:version="0.48.4 r9939"
   sodipodi:docname="flooding.png">
  <sodipodi:namedview
     id="base"
     pagecolor="#ffffff"
     bordercolor="#666666"
     borderopacity="1.0"
     inkscape:pageopacity="0.0"
     inkscape:pageshadow="2"
     inkscape:zoom="0.98994949"
     inkscape:cx="110.17338"
     inkscape:cy="495.308"
     inkscape:document-units="px"
     inkscape:current-layer="layer1"
     showgrid="false"
     inkscape:window-width="1928"
     inkscape:window-height="1152"
     inkscape:window-x="107"
     inkscape:window-y="158"
     inkscape:window-maximized="0"
     fit-margin-top="0"
     fit-margin-left="0"
     fit-margin-right="0"
     fit-margin-bottom="0" />
  <defs
     id="defs4">
    <marker
       style="overflow:visible"
       id="Arrow2Lstart"
       refX="0"
       refY="0"
       orient="auto"
       inkscape:stockid="Arrow2Lstart">
      <path
         transform="matrix(1.1,0,0,1.1,1.1,0)"
         d="M 8.7185878,4.0337352 -2.2072895,0.01601326 8.7185884,-4.0017078 c -1.7454984,2.3720609 -1.7354408,5.6174519 -6e-7,8.035443 z"
         style="fill-rule:evenodd;stroke-width:0.625;stroke-linejoin:round"
         id="path3918"
         inkscape:connector-curvature="0" />
    </marker>
    <marker
       style="overflow:visible"
       id="Arrow2Lend"
       refX="0"
       refY="0"
       orient="auto"
       inkscape:stockid="Arrow2Lend">
      <path
         transform="matrix(-1.1,0,0,-1.1,-1.1,0)"
         d="M 8.7185878,4.0337352 -2.2072895,0.01601326 8.7185884,-4.0017078 c -1.7454984,2.3720609 -1.7354408,5.6174519 -6e-7,8.035443 z"
         style="fill-rule:evenodd;stroke-width:0.625;stroke-linejoin:round"
         id="path3921"
         inkscape:connector-curvature="0" />
    </marker>
    <inkscape:path-effect
       is_visible="true"
       id="path-effect2997"
       effect="spiro" />
    <inkscape:path-effect
       is_visible="true"
       id="path-effect2993"
       effect="spiro" />
    <marker
       style="overflow:visible"
       id="Arrow2Lenda"
       refX="0"
       refY="0"
       orient="auto"
       inkscape:stockid="Arrow2Lenda">
      <path
         transform="matrix(-1.1,0,0,-1.1,-1.1,0)"
         d="M 8.7185878,4.0337352 -2.2072895,0.01601326 8.7185884,-4.0017078 c -1.7454984,2.3720609 -1.7354408,5.6174519 -6e-7,8.035443 z"
         style="fill:#808080;fill-rule:evenodd;stroke:#808080;stroke-width:0.625;stroke-linejoin:round"
         id="path5455"
         inkscape:connector-curvature="0" />
    </marker>
    <marker
       style="overflow:visible"
       id="Arrow2Lend2"
       refX="0"
       refY="0"
       orient="auto"
       inkscape:stockid="Arrow2Lend2">
      <path
         transform="matrix(-1.1,0,0,-1.1,-1.1,0)"
         d="M 8.7185878,4.0337352 -2.2072895,0.01601326 8.7185884,-4.0017078 c -1.7454984,2.3720609 -1.7354408,5.6174519 -6e-7,8.035443 z"
         style="fill:#808080;fill-rule:evenodd;stroke:#808080;stroke-width:0.625;stroke-linejoin:round"
         id="path5458"
         inkscape:connector-curvature="0" />
    </marker>
  </defs>
  <metadata
     id="metadata7">
    <rdf:RDF>
      <cc:Work
         rdf:about="">
        <dc:format>image/svg+xml</dc:format>
        <dc:type
           rdf:resource="http://purl.org/dc/dcmitype/StillImage" />
        <dc:title></dc:title>
      </cc:Work>
    </rdf:RDF>
  </metadata>
  <g
     id="layer1"
     inkscape:groupmode="layer"
     inkscape:label="Layer 1"
     transform="translate(16.604615,-55.95336)">
    <path
       sodipodi:nodetypes="cccccccccccccccccccccc"
       inkscape:connector-curvature="0"
       id="path3890"
       d="m 105.71429,635.3979 160.98214,-0.13394 0.44643,73.52679 -5.53572,1.25 -11.07143,9.46429 -18.21428,31.96428 -35.53572,92.50001 -12.85714,26.42857 -6.4069,7.86797 -2.42319,2.96531 -5.94801,1.29163 -4.30849,-1.46251 -4.66341,-3.69812 -4.28475,-5.72953 -7.91627,-12.963 -9.94184,-32.73604 -5.97348,-20.39344 -4.03646,-21.245 -6.08482,-28.63083 -5.15524,-35.62359 -5.31428,-32.77949 z"
       style="opacity:0.6;fill:#c83737;fill-opacity:1;stroke:#c83737;stroke-width:1px;stroke-linecap:butt;stroke-linejoin:miter;stroke-opacity:1" />
    <path
       sodipodi:nodetypes="ccccccccccssccccccc"
       inkscape:connector-curvature="0"
       id="path3892"
       d="m 269.20565,635.42172 231.32494,-0.25254 0.50507,10.10153 -21.46574,7.82868 -18.94036,18.68782 -21.11469,34.78745 -21.05918,43.24683 -20.96066,35.60788 -18.18275,25.75889 -8.5863,7.82868 c 0,0 -8.08122,7.82869 -9.09137,7.82869 -1.01015,0 -10.10152,2.77792 -11.11168,2.27284 -1.01015,-0.50508 -7.82868,-1.01015 -7.82868,-1.01015 l -11.86929,-12.37437 -21.46574,-48.73986 -12.12183,-32.32488 -14.14214,-20.45559 -13.13198,-4.04061 z"
       style="opacity:0.6;fill:#ffcc00;fill-opacity:1;stroke:#ffcc00;stroke-width:1px;stroke-linecap:butt;stroke-linejoin:miter;stroke-opacity:1" />
    <path
       sodipodi:nodetypes="ccccccccccccccccc"
       inkscape:connector-curvature="0"
       id="path3894"
       d="m 502.14286,646.11218 0.86222,-10.26151 151.92095,-0.20921 21.98596,0.1569 -12.4477,21.92096 -12.32143,18.92858 -11.42857,13.39285 -8.21429,9.46429 -8.03571,7.5 -7.14286,4.28571 -11.42857,5.17857 -9.28572,0 -19.64285,-16.42857 -30.53572,-35.17857 -20.17857,-13.92857 -12.67857,-3.92857 z"
       style="opacity:0.6;fill:#d42aff;fill-opacity:1;stroke:#d42aff;stroke-width:1px;stroke-linecap:butt;stroke-linejoin:miter;stroke-opacity:1" />
    <path
       sodipodi:nodetypes="cscsscsc"
       inkscape:connector-curvature="0"
       d="m 104.28884,634.29259 c 13.15541,131.73428 38.9253,258.01466 67.78337,249.40079 30.49832,-9.10347 57.53849,-173.69967 97.43658,-173.54031 53.54394,-1.4694 42.04727,228.8382 141.2075,54.16116 7.17338,-12.63636 15.65772,-32.19042 25.68992,-51.75431 16.9801,-33.11305 38.39444,-66.25426 65.39166,-65.92897 44.13242,-0.41143 66.15232,50.94481 89.77375,67.56815 28.39967,19.98597 78.15035,-59.01328 86.04354,-79.04429"
       style="fill:none;stroke:#0081c9;stroke-width:3;stroke-linecap:butt;stroke-linejoin:miter;stroke-miterlimit:4;stroke-opacity:1;stroke-dasharray:none"
       id="path3829-3" />
    <path
       sodipodi:nodetypes="ccccccccccccccccccccccccc"
       inkscape:connector-curvature="0"
       id="path3857"
       d="m 114.39977,416.72369 152.39502,-0.25254 -0.0122,3.2266 -5.22709,1.66092 -9.82825,8.22505 -11.07938,16.16248 -9.35099,18.08483 -26.48849,69.06021 -9.84899,25.56948 -6.29012,13.80668 -5.32663,9.3637 -3.52833,4.93033 -4.04782,4.41358 -4.79822,2.77792 -4.69484,0.0665 -3.89146,-1.58175 -5.0165,-3.44453 -3.82233,-5.14177 -3.97074,-7.17215 -3.24742,-7.75675 -5.66129,-16.8909 -4.66678,-20.07792 -5.24061,-19.7418 -8.27535,-43.01279 z"
       style="opacity:0.6;fill:#c83737;stroke:#c83737;stroke-width:1px;stroke-linecap:butt;stroke-linejoin:miter;stroke-opacity:1" />
    <path
       sodipodi:nodetypes="ccccccccccccccc"
       inkscape:connector-curvature="0"
       id="path3087"
       d="m 133.48215,230.93361 76.46013,0.0108 -9.67442,26.0606 -9.64286,23.39285 -6.92096,13.03572 -5.57904,7.23214 -3.75,3.30357 -3.66071,1.25001 -4.14446,0.4042 -4.60554,-1.74349 -7.16147,-6.88031 -5.78496,-10.35184 -5.0448,-13.37885 -4.86592,-16.62115 z"
       style="opacity:0.6;fill:#c83737;fill-opacity:1;stroke:#c83737;stroke-opacity:1" />
    <path
       sodipodi:nodetypes="ccccccccccccccccccccccc"
       inkscape:connector-curvature="0"
       id="path3861"
       d="m 270.85138,416.8896 167.18434,-0.2417 -17.38654,36.59391 -8.75265,17.10807 -5.96497,10.52868 -7.79985,12.82691 -14.40623,20.95513 -16.34232,17.73253 -9.06516,5.3051 -3.99963,1.06865 -3.96123,0.55959 -5.25501,-0.9652 -4.00459,-2.08941 -4.13808,-3.771 -4.80174,-5.93567 -7.61915,-13.48298 -16.98235,-45.70721 -2.75877,-6.70876 -9.84077,-21.83159 -9.90708,-12.86205 -7.58257,-5.05186 -6.75105,-1.34261 z"
       style="opacity:0.6;fill:#ffcc00;stroke:#ffcc00;stroke-width:1px;stroke-linecap:butt;stroke-linejoin:miter;stroke-opacity:1" />
    <path
       sodipodi:nodetypes="cc"
       inkscape:connector-curvature="0"
       id="path3858"
       d="m 38.385797,942.25556 0,-150.51273"
       style="fill:none;stroke:#808080;stroke-width:2;stroke-linecap:butt;stroke-linejoin:miter;stroke-miterlimit:4;stroke-opacity:1;stroke-dasharray:none;marker-start:none;marker-end:url(#Arrow2Lenda)" />
    <path
       inkscape:connector-curvature="0"
       id="path3860"
       d="m 88.548234,229.47365 608.111836,0"
       style="fill:none;stroke:#969696;stroke-width:2;stroke-linecap:butt;stroke-linejoin:miter;stroke-miterlimit:4;stroke-opacity:1;stroke-dasharray:6, 6;stroke-dashoffset:0" />
    <path
       sodipodi:nodetypes="ccccccsccc"
       inkscape:connector-curvature="0"
       id="path3863"
       d="m 583.5746,416.93967 42.88236,0.0217 -4.67125,1.82943 -2.14285,1.42857 -2.67857,1.78572 -5.89287,3.21428 c 0,0 -6.38751,2.7479 -9.28571,2.32143 -2.40732,-0.35423 -8.76911,-2.62122 -8.57142,-3.21428 l -4.38489,-3.16321 z"
       style="opacity:0.6;fill:#d42aff;stroke:#d42aff;stroke-width:1px;stroke-linecap:butt;stroke-linejoin:miter;stroke-opacity:1" />
    <path
       inkscape:connector-curvature="0"
       id="path3860-0"
       d="m 88.548233,415.50504 608.111837,0"
       style="fill:none;stroke:#969696;stroke-width:2;stroke-linecap:butt;stroke-linejoin:miter;stroke-miterlimit:4;stroke-opacity:1;stroke-dasharray:6, 6;stroke-dashoffset:0" />
    <path
       inkscape:connector-curvature="0"
       id="path3860-0-3"
       d="m 88.548234,634.23515 608.111836,0"
       style="fill:none;stroke:#969696;stroke-width:2;stroke-linecap:butt;stroke-linejoin:miter;stroke-miterlimit:4;stroke-opacity:1;stroke-dasharray:6, 6;stroke-dashoffset:0" />
    <path
       inkscape:connector-curvature="0"
       id="path3898-4"
       d="m 268.84575,607.75008 0,102.06812"
       style="opacity:0.98999999000000005;fill:#c87137;stroke:#0081c9;stroke-width:3.45331835999999992;stroke-linecap:butt;stroke-linejoin:miter;stroke-miterlimit:4;stroke-opacity:1;stroke-dasharray:none" />
    <path
       inkscape:connector-curvature="0"
       id="path3898-41"
       d="m 501.30907,609.11463 0,37.30827"
       style="opacity:0.98999999000000005;fill:#c87137;stroke:#0081c9;stroke-width:3.03749466000000012;stroke-linecap:butt;stroke-linejoin:miter;stroke-miterlimit:4;stroke-opacity:1;stroke-dasharray:none" />
    <path
       sodipodi:nodetypes="ccccccsccccc"
       inkscape:connector-curvature="0"
       id="path3859"
       d="m 327.51981,230.99674 52.95014,-0.1001 -6.98594,7.88964 -7.30612,6.0083 c 3.6086,-4.33134 -2.4903,3.35561 -3.86171,4.68618 l -6.24475,0.56001 c 0,0 -3.21663,0.98202 -4.91072,0.89286 -1.69642,-0.0893 -2.67222,1.19507 -2.67222,1.19507 l -5.53405,-1.99736 -4.48947,-2.75645 c -2.70166,-1.92034 -5.12928,-5.44815 -7.11671,-9.03504 z"
       style="opacity:0.6;fill:#ffcc00;stroke:#ffcc00;stroke-width:1px;stroke-linecap:butt;stroke-linejoin:miter;stroke-opacity:1" />
    <path
       sodipodi:nodetypes="cscscsc"
       inkscape:connector-curvature="0"
       d="m 104.28884,57.45336 c 13.15541,131.73428 38.9253,258.01466 67.78337,249.40079 30.49832,-9.10347 57.53849,-173.69967 97.43658,-173.54031 53.54394,-1.4694 42.04723,228.83818 141.2075,54.16116 19.31475,-34.02416 48.13384,-118.20076 91.08158,-117.68328 44.13242,-0.41143 66.15232,50.94481 89.77375,67.56815 28.39967,19.98597 78.15035,-59.01328 86.04354,-79.04429"
       style="fill:none;stroke:#0081c9;stroke-width:3;stroke-linecap:butt;stroke-linejoin:miter;stroke-miterlimit:4;stroke-opacity:1;stroke-dasharray:none"
       id="path3829-3-2" />
    <path
       sodipodi:nodetypes="cscscsc"
       inkscape:connector-curvature="0"
       d="m 104.28883,345.60549 c 13.15541,131.73428 38.9253,258.01466 67.78337,249.40079 30.49833,-9.10347 57.5385,-173.69967 97.43659,-173.54031 53.54394,-1.4694 42.04723,228.83818 141.2075,54.16116 19.31475,-34.02416 48.13384,-118.20076 91.08158,-117.68328 44.13242,-0.41143 66.15232,50.94481 89.77376,67.56815 28.39967,19.98597 78.15035,-59.01328 86.04354,-79.04429"
       style="fill:none;stroke:#0081c9;stroke-width:3;stroke-linecap:butt;stroke-linejoin:miter;stroke-miterlimit:4;stroke-opacity:1;stroke-dasharray:none"
       id="path3829-3-0" />
    <path
       sodipodi:nodetypes="cc"
       inkscape:connector-curvature="0"
       id="path3898"
       d="m 268.93825,333.71608 -0.15784,86.34286"
       style="opacity:0.98999999000000005;fill:#c87137;stroke:#0081c9;stroke-width:3.25644064000000011;stroke-linecap:butt;stroke-linejoin:miter;stroke-miterlimit:4;stroke-opacity:1;stroke-dasharray:none" />
    <path
       inkscape:connector-curvature="0"
       id="path5260"
       d="m 37.880721,941.2454 197.484819,0"
       style="fill:none;stroke:#808080;stroke-width:2;stroke-linecap:butt;stroke-linejoin:miter;stroke-miterlimit:4;stroke-opacity:1;stroke-dasharray:none;marker-end:url(#Arrow2Lend2)" />
    <flowRoot
       xml:space="preserve"
       id="flowRoot6996"
       style="font-size:40px;font-style:italic;font-weight:normal;line-height:125%;letter-spacing:0px;word-spacing:0px;fill:#808080;fill-opacity:1;stroke:#808080;stroke-opacity:1;font-family:Sans;-inkscape-font-specification:Sans Italic"
       transform="matrix(0,-1,1,0,-654.92861,632.5579)"><flowRegion
         id="flowRegion6998"><rect
           id="rect7000"
           width="475.78186"
           height="213.14218"
           x="-310.11682"
           y="628.09808"
           style="font-style:italic;font-weight:normal;fill:#808080;fill-opacity:1;stroke:#808080;stroke-opacity:1;-inkscape-font-specification:Sans Italic" /></flowRegion><flowPara
         id="flowPara7002"
         style="font-style:normal;font-variant:normal;font-weight:normal;font-stretch:normal;font-family:Arial;-inkscape-font-specification:Arial">Intensity</flowPara></flowRoot>    <flowRoot
       xml:space="preserve"
       id="flowRoot7004"
       style="font-size:40px;font-style:italic;font-variant:normal;font-weight:normal;font-stretch:normal;line-height:125%;letter-spacing:0px;word-spacing:0px;fill:#000000;fill-opacity:1;stroke:none;font-family:Arial;-inkscape-font-specification:Arial Italic"
       transform="translate(41.353493,-22.857143)"><flowRegion
         id="flowRegion7006"><rect
           id="rect7008"
           width="102.85714"
           height="50"
           x="85.714287"
           y="956.64789"
           style="font-style:italic;font-variant:normal;font-weight:normal;font-stretch:normal;font-family:Arial;-inkscape-font-specification:Arial Italic" /></flowRegion><flowPara
         id="flowPara7010"
         style="fill:#808080;fill-opacity:1;font-style:normal;-inkscape-font-specification:Arial">x</flowPara></flowRoot>    <flowRoot
       xml:space="preserve"
       id="flowRoot7031"
       style="font-size:40px;font-style:normal;font-weight:bold;line-height:125%;letter-spacing:0px;word-spacing:0px;fill:#808080;fill-opacity:1;stroke:none;font-family:Sans;-inkscape-font-specification:Sans Bold"
       transform="translate(3.4366392,57.787892)"><flowRegion
         id="flowRegion7033"><rect
           id="rect7035"
           width="168.69548"
           height="53.538082"
           x="-6.0609155"
           y="151.51317"
           style="fill:#808080;fill-opacity:1" /></flowRegion><flowPara
         id="flowPara7037"
         style="font-size:32px;font-weight:normal;fill:#808080;fill-opacity:1;font-family:Arial;-inkscape-font-specification:Arial">h=40</flowPara></flowRoot>    <flowRoot
       xml:space="preserve"
       id="flowRoot7031-4"
       style="font-size:40px;font-style:normal;font-weight:bold;line-height:125%;letter-spacing:0px;word-spacing:0px;fill:#808080;fill-opacity:1;stroke:none;font-family:Sans;-inkscape-font-specification:Sans Bold"
       transform="translate(3.4366392,243.81928)"><flowRegion
         id="flowRegion7033-3"><rect
           id="rect7035-5"
           width="168.69548"
           height="53.538082"
           x="-6.0609155"
           y="151.51317"
           style="fill:#808080;fill-opacity:1" /></flowRegion><flowPara
         style="font-size:32px;font-weight:normal;fill:#808080;fill-opacity:1;font-family:Arial;-inkscape-font-specification:Arial"
         id="flowPara7106">h=90</flowPara><flowPara
         style="font-size:32px;font-weight:normal;fill:#808080;fill-opacity:1;font-family:Arial;-inkscape-font-specification:Arial"
         id="flowPara7110" /></flowRoot>    <flowRoot
       xml:space="preserve"
       id="flowRoot7031-9"
       style="font-size:40px;font-style:normal;font-weight:bold;line-height:125%;letter-spacing:0px;word-spacing:0px;fill:#808080;fill-opacity:1;stroke:none;font-family:Sans;-inkscape-font-specification:Sans Bold"
       transform="translate(-5.4696108,462.54939)"><flowRegion
         id="flowRegion7033-2"><rect
           id="rect7035-0"
           width="168.69548"
           height="53.538082"
           x="-6.0609155"
           y="151.51317"
           style="fill:#808080;fill-opacity:1" /></flowRegion><flowPara
         id="flowPara7037-6"
         style="font-size:32px;font-weight:normal;fill:#808080;fill-opacity:1;font-family:Arial;-inkscape-font-specification:Arial">h=160</flowPara></flowRoot>  </g>
</svg>
